<svg version="1.1" viewBox="0.0 0.0 705.0 435.0" fill="none" stroke="none" stroke-linecap="square"
     stroke-miterlimit="10" width="705" height="435"
     xmlns="http://www.w3.org/2000/svg">
    <path fill="#ffffff" d="M0 0L705.0 0L705.0 435.0L0 435.0L0 0Z" fill-rule="nonzero"/>
    <path stroke="#333333" stroke-width="1.0" stroke-linecap="butt" d="M94.5 28.5L94.5 361.5" fill-rule="nonzero"/>
    <path stroke="#cccccc" stroke-width="1.0" stroke-linecap="butt" d="M265.5 28.5L265.5 361.5" fill-rule="nonzero"/>
    <path stroke="#cccccc" stroke-width="1.0" stroke-linecap="butt" d="M436.5 28.5L436.5 361.5" fill-rule="nonzero"/>
    <path stroke="#cccccc" stroke-width="1.0" stroke-linecap="butt" d="M607.5 28.5L607.5 361.5" fill-rule="nonzero"/>
    <path stroke="#e6e6e6" stroke-width="1.0" stroke-linecap="butt" d="M180.5 28.5L180.5 361.5" fill-rule="nonzero"/>
    <path stroke="#e6e6e6" stroke-width="1.0" stroke-linecap="butt" d="M351.5 28.5L351.5 361.5" fill-rule="nonzero"/>
    <path stroke="#e6e6e6" stroke-width="1.0" stroke-linecap="butt" d="M521.5 28.5L521.5 361.5" fill-rule="nonzero"/>
    <path stroke="#333333" stroke-width="1.0" stroke-linecap="butt" d="M94.5 361.5L617.5 361.5" fill-rule="nonzero"/>
    <path stroke="#cccccc" stroke-width="1.0" stroke-linecap="butt" d="M94.5 294.5L617.5 294.5" fill-rule="nonzero"/>
    <path stroke="#cccccc" stroke-width="1.0" stroke-linecap="butt" d="M94.5 228.5L617.5 228.5" fill-rule="nonzero"/>
    <path stroke="#cccccc" stroke-width="1.0" stroke-linecap="butt" d="M94.5 161.5L617.5 161.5" fill-rule="nonzero"/>
    <path stroke="#cccccc" stroke-width="1.0" stroke-linecap="butt" d="M94.5 95.5L617.5 95.5" fill-rule="nonzero"/>
    <path stroke="#cccccc" stroke-width="1.0" stroke-linecap="butt" d="M94.5 28.5L617.5 28.5" fill-rule="nonzero"/>
    <clipPath id="id_0">
        <path d="M94.75 28.75L617.1 28.75L617.1 361.25L94.75 361.25L94.75 28.75Z" clip-rule="nonzero"/>
    </clipPath>
    <path stroke="#4285f4" stroke-width="2.0" stroke-linecap="butt" clip-path="url(#id_0)"
          d="M180.17297 355.44455L265.59595 335.44135L351.01892 300.8148L436.4419 252.2565L521.86487 192.51955L607.28784 73.3449"
          fill-rule="nonzero"/>
    <path stroke="#ea4335" stroke-width="2.0" stroke-linecap="butt" clip-path="url(#id_0)"
          d="M180.17297 357.0738L265.59595 345.23016L351.01892 324.2627L436.4419 296.9312L521.86487 264.3462L607.28784 210.96664"
          fill-rule="nonzero"/>
    <path stroke="#fbbc04" stroke-width="2.0" stroke-linecap="butt" clip-path="url(#id_0)"
          d="M180.17297 357.4861L265.59595 348.70145L351.01892 333.71234L436.4419 312.6119L521.86487 290.8664L607.28784 255.4485"
          fill-rule="nonzero"/>
    <path stroke="#34a853" stroke-width="2.0" stroke-linecap="butt" clip-path="url(#id_0)"
          d="M180.17297 357.659L265.59595 349.9583L351.01892 337.6824L436.4419 324.1297L521.86487 302.51056L607.28784 273.9355"
          fill-rule="nonzero"/>
    <path stroke="#ff6d01" stroke-width="2.0" stroke-linecap="butt" clip-path="url(#id_0)"
          d="M180.17297 357.8452L265.59595 351.0223L351.01892 341.0872L436.4419 329.46964L521.86487 313.6493L607.28784 289.50314"
          fill-rule="nonzero"/>
    <path stroke="#46bdc6" stroke-width="2.0" stroke-linecap="butt" clip-path="url(#id_0)"
          d="M180.17297 357.9117L265.59595 351.46786L351.01892 342.3108L436.4419 330.926L521.86487 318.7432L607.28784 297.05756"
          fill-rule="nonzero"/>
    <path fill="#4285f4" clip-path="url(#id_0)"
          d="M186.17297 355.44455C186.17297 358.75827 183.48668 361.44455 180.17297 361.44455C176.85927 361.44455 174.17297 358.75827 174.17297 355.44455C174.17297 352.13083 176.85927 349.44455 180.17297 349.44455C183.48668 349.44455 186.17297 352.13083 186.17297 355.44455Z"
          fill-rule="nonzero"/>
    <path fill="#4285f4" clip-path="url(#id_0)"
          d="M271.59595 335.44135C271.59595 338.75507 268.90967 341.44135 265.59595 341.44135C262.28223 341.44135 259.59595 338.75507 259.59595 335.44135C259.59595 332.12766 262.28223 329.44135 265.59595 329.44135C268.90967 329.44135 271.59595 332.12766 271.59595 335.44135Z"
          fill-rule="nonzero"/>
    <path fill="#4285f4" clip-path="url(#id_0)"
          d="M357.01892 300.8148C357.01892 304.1285 354.33264 306.8148 351.01892 306.8148C347.7052 306.8148 345.01892 304.1285 345.01892 300.8148C345.01892 297.5011 347.7052 294.8148 351.01892 294.8148C354.33264 294.8148 357.01892 297.5011 357.01892 300.8148Z"
          fill-rule="nonzero"/>
    <path fill="#4285f4" clip-path="url(#id_0)"
          d="M442.4419 252.2565C442.4419 255.5702 439.7556 258.2565 436.4419 258.2565C433.12817 258.2565 430.4419 255.5702 430.4419 252.2565C430.4419 248.9428 433.12817 246.2565 436.4419 246.2565C439.7556 246.2565 442.4419 248.9428 442.4419 252.2565Z"
          fill-rule="nonzero"/>
    <path fill="#4285f4" clip-path="url(#id_0)"
          d="M527.86487 192.51955C527.86487 195.83325 525.1786 198.51955 521.86487 198.51955C518.55115 198.51955 515.86487 195.83325 515.86487 192.51955C515.86487 189.20584 518.55115 186.51955 521.86487 186.51955C525.1786 186.51955 527.86487 189.20584 527.86487 192.51955Z"
          fill-rule="nonzero"/>
    <path fill="#4285f4" clip-path="url(#id_0)"
          d="M613.28784 73.3449C613.28784 76.65861 610.60156 79.3449 607.28784 79.3449C603.9741 79.3449 601.28784 76.65861 601.28784 73.3449C601.28784 70.03119 603.9741 67.3449 607.28784 67.3449C610.60156 67.3449 613.28784 70.03119 613.28784 73.3449Z"
          fill-rule="nonzero"/>
    <path fill="#ea4335" clip-path="url(#id_0)"
          d="M186.17297 357.0738C186.17297 360.3875 183.48668 363.0738 180.17297 363.0738C176.85927 363.0738 174.17297 360.3875 174.17297 357.0738C174.17297 353.7601 176.85927 351.0738 180.17297 351.0738C183.48668 351.0738 186.17297 353.7601 186.17297 357.0738Z"
          fill-rule="nonzero"/>
    <path fill="#ea4335" clip-path="url(#id_0)"
          d="M271.59595 345.23016C271.59595 348.54385 268.90967 351.23016 265.59595 351.23016C262.28223 351.23016 259.59595 348.54385 259.59595 345.23016C259.59595 341.91644 262.28223 339.23016 265.59595 339.23016C268.90967 339.23016 271.59595 341.91644 271.59595 345.23016Z"
          fill-rule="nonzero"/>
    <path fill="#ea4335" clip-path="url(#id_0)"
          d="M357.01892 324.2627C357.01892 327.57642 354.33264 330.2627 351.01892 330.2627C347.7052 330.2627 345.01892 327.57642 345.01892 324.2627C345.01892 320.949 347.7052 318.2627 351.01892 318.2627C354.33264 318.2627 357.01892 320.949 357.01892 324.2627Z"
          fill-rule="nonzero"/>
    <path fill="#ea4335" clip-path="url(#id_0)"
          d="M442.4419 296.9312C442.4419 300.2449 439.7556 302.9312 436.4419 302.9312C433.12817 302.9312 430.4419 300.2449 430.4419 296.9312C430.4419 293.6175 433.12817 290.9312 436.4419 290.9312C439.7556 290.9312 442.4419 293.6175 442.4419 296.9312Z"
          fill-rule="nonzero"/>
    <path fill="#ea4335" clip-path="url(#id_0)"
          d="M527.86487 264.3462C527.86487 267.6599 525.1786 270.3462 521.86487 270.3462C518.55115 270.3462 515.86487 267.6599 515.86487 264.3462C515.86487 261.0325 518.55115 258.3462 521.86487 258.3462C525.1786 258.3462 527.86487 261.0325 527.86487 264.3462Z"
          fill-rule="nonzero"/>
    <path fill="#ea4335" clip-path="url(#id_0)"
          d="M613.28784 210.96664C613.28784 214.28036 610.60156 216.96664 607.28784 216.96664C603.9741 216.96664 601.28784 214.28036 601.28784 210.96664C601.28784 207.65294 603.9741 204.96664 607.28784 204.96664C610.60156 204.96664 613.28784 207.65294 613.28784 210.96664Z"
          fill-rule="nonzero"/>
    <path fill="#fbbc04" clip-path="url(#id_0)"
          d="M186.17297 357.4861C186.17297 360.7998 183.48668 363.4861 180.17297 363.4861C176.85927 363.4861 174.17297 360.7998 174.17297 357.4861C174.17297 354.1724 176.85927 351.4861 180.17297 351.4861C183.48668 351.4861 186.17297 354.1724 186.17297 357.4861Z"
          fill-rule="nonzero"/>
    <path fill="#fbbc04" clip-path="url(#id_0)"
          d="M271.59595 348.70145C271.59595 352.01517 268.90967 354.70145 265.59595 354.70145C262.28223 354.70145 259.59595 352.01517 259.59595 348.70145C259.59595 345.38776 262.28223 342.70145 265.59595 342.70145C268.90967 342.70145 271.59595 345.38776 271.59595 348.70145Z"
          fill-rule="nonzero"/>
    <path fill="#fbbc04" clip-path="url(#id_0)"
          d="M357.01892 333.71234C357.01892 337.02606 354.33264 339.71234 351.01892 339.71234C347.7052 339.71234 345.01892 337.02606 345.01892 333.71234C345.01892 330.39865 347.7052 327.71234 351.01892 327.71234C354.33264 327.71234 357.01892 330.39865 357.01892 333.71234Z"
          fill-rule="nonzero"/>
    <path fill="#fbbc04" clip-path="url(#id_0)"
          d="M442.4419 312.6119C442.4419 315.9256 439.7556 318.6119 436.4419 318.6119C433.12817 318.6119 430.4419 315.9256 430.4419 312.6119C430.4419 309.2982 433.12817 306.6119 436.4419 306.6119C439.7556 306.6119 442.4419 309.2982 442.4419 312.6119Z"
          fill-rule="nonzero"/>
    <path fill="#fbbc04" clip-path="url(#id_0)"
          d="M527.86487 290.8664C527.86487 294.1801 525.1786 296.8664 521.86487 296.8664C518.55115 296.8664 515.86487 294.1801 515.86487 290.8664C515.86487 287.5527 518.55115 284.8664 521.86487 284.8664C525.1786 284.8664 527.86487 287.5527 527.86487 290.8664Z"
          fill-rule="nonzero"/>
    <path fill="#fbbc04" clip-path="url(#id_0)"
          d="M613.28784 255.4485C613.28784 258.7622 610.60156 261.4485 607.28784 261.4485C603.9741 261.4485 601.28784 258.7622 601.28784 255.4485C601.28784 252.1348 603.9741 249.4485 607.28784 249.4485C610.60156 249.4485 613.28784 252.1348 613.28784 255.4485Z"
          fill-rule="nonzero"/>
    <path fill="#34a853" clip-path="url(#id_0)"
          d="M186.17297 357.659C186.17297 360.97272 183.48668 363.659 180.17297 363.659C176.85927 363.659 174.17297 360.97272 174.17297 357.659C174.17297 354.3453 176.85927 351.659 180.17297 351.659C183.48668 351.659 186.17297 354.3453 186.17297 357.659Z"
          fill-rule="nonzero"/>
    <path fill="#34a853" clip-path="url(#id_0)"
          d="M271.59595 349.9583C271.59595 353.272 268.90967 355.9583 265.59595 355.9583C262.28223 355.9583 259.59595 353.272 259.59595 349.9583C259.59595 346.6446 262.28223 343.9583 265.59595 343.9583C268.90967 343.9583 271.59595 346.6446 271.59595 349.9583Z"
          fill-rule="nonzero"/>
    <path fill="#34a853" clip-path="url(#id_0)"
          d="M357.01892 337.6824C357.01892 340.9961 354.33264 343.6824 351.01892 343.6824C347.7052 343.6824 345.01892 340.9961 345.01892 337.6824C345.01892 334.36868 347.7052 331.6824 351.01892 331.6824C354.33264 331.6824 357.01892 334.36868 357.01892 337.6824Z"
          fill-rule="nonzero"/>
    <path fill="#34a853" clip-path="url(#id_0)"
          d="M442.4419 324.1297C442.4419 327.44342 439.7556 330.1297 436.4419 330.1297C433.12817 330.1297 430.4419 327.44342 430.4419 324.1297C430.4419 320.81598 433.12817 318.1297 436.4419 318.1297C439.7556 318.1297 442.4419 320.81598 442.4419 324.1297Z"
          fill-rule="nonzero"/>
    <path fill="#34a853" clip-path="url(#id_0)"
          d="M527.86487 302.51056C527.86487 305.82425 525.1786 308.51056 521.86487 308.51056C518.55115 308.51056 515.86487 305.82425 515.86487 302.51056C515.86487 299.19684 518.55115 296.51056 521.86487 296.51056C525.1786 296.51056 527.86487 299.19684 527.86487 302.51056Z"
          fill-rule="nonzero"/>
    <path fill="#34a853" clip-path="url(#id_0)"
          d="M613.28784 273.9355C613.28784 277.2492 610.60156 279.9355 607.28784 279.9355C603.9741 279.9355 601.28784 277.2492 601.28784 273.9355C601.28784 270.6218 603.9741 267.9355 607.28784 267.9355C610.60156 267.9355 613.28784 270.6218 613.28784 273.9355Z"
          fill-rule="nonzero"/>
    <path fill="#ff6d01" clip-path="url(#id_0)"
          d="M186.17297 357.8452C186.17297 361.1589 183.48668 363.8452 180.17297 363.8452C176.85927 363.8452 174.17297 361.1589 174.17297 357.8452C174.17297 354.5315 176.85927 351.8452 180.17297 351.8452C183.48668 351.8452 186.17297 354.5315 186.17297 357.8452Z"
          fill-rule="nonzero"/>
    <path fill="#ff6d01" clip-path="url(#id_0)"
          d="M271.59595 351.0223C271.59595 354.336 268.90967 357.0223 265.59595 357.0223C262.28223 357.0223 259.59595 354.336 259.59595 351.0223C259.59595 347.7086 262.28223 345.0223 265.59595 345.0223C268.90967 345.0223 271.59595 347.7086 271.59595 351.0223Z"
          fill-rule="nonzero"/>
    <path fill="#ff6d01" clip-path="url(#id_0)"
          d="M357.01892 341.0872C357.01892 344.4009 354.33264 347.0872 351.01892 347.0872C347.7052 347.0872 345.01892 344.4009 345.01892 341.0872C345.01892 337.7735 347.7052 335.0872 351.01892 335.0872C354.33264 335.0872 357.01892 337.7735 357.01892 341.0872Z"
          fill-rule="nonzero"/>
    <path fill="#ff6d01" clip-path="url(#id_0)"
          d="M442.4419 329.46964C442.4419 332.78336 439.7556 335.46964 436.4419 335.46964C433.12817 335.46964 430.4419 332.78336 430.4419 329.46964C430.4419 326.15594 433.12817 323.46964 436.4419 323.46964C439.7556 323.46964 442.4419 326.15594 442.4419 329.46964Z"
          fill-rule="nonzero"/>
    <path fill="#ff6d01" clip-path="url(#id_0)"
          d="M527.86487 313.6493C527.86487 316.963 525.1786 319.6493 521.86487 319.6493C518.55115 319.6493 515.86487 316.963 515.86487 313.6493C515.86487 310.3356 518.55115 307.6493 521.86487 307.6493C525.1786 307.6493 527.86487 310.3356 527.86487 313.6493Z"
          fill-rule="nonzero"/>
    <path fill="#ff6d01" clip-path="url(#id_0)"
          d="M613.28784 289.50314C613.28784 292.81686 610.60156 295.50314 607.28784 295.50314C603.9741 295.50314 601.28784 292.81686 601.28784 289.50314C601.28784 286.18945 603.9741 283.50314 607.28784 283.50314C610.60156 283.50314 613.28784 286.18945 613.28784 289.50314Z"
          fill-rule="nonzero"/>
    <path fill="#46bdc6" clip-path="url(#id_0)"
          d="M186.17297 357.9117C186.17297 361.2254 183.48668 363.9117 180.17297 363.9117C176.85927 363.9117 174.17297 361.2254 174.17297 357.9117C174.17297 354.598 176.85927 351.9117 180.17297 351.9117C183.48668 351.9117 186.17297 354.598 186.17297 357.9117Z"
          fill-rule="nonzero"/>
    <path fill="#46bdc6" clip-path="url(#id_0)"
          d="M271.59595 351.46786C271.59595 354.78156 268.90967 357.46786 265.59595 357.46786C262.28223 357.46786 259.59595 354.78156 259.59595 351.46786C259.59595 348.15414 262.28223 345.46786 265.59595 345.46786C268.90967 345.46786 271.59595 348.15414 271.59595 351.46786Z"
          fill-rule="nonzero"/>
    <path fill="#46bdc6" clip-path="url(#id_0)"
          d="M357.01892 342.3108C357.01892 345.6245 354.33264 348.3108 351.01892 348.3108C347.7052 348.3108 345.01892 345.6245 345.01892 342.3108C345.01892 338.9971 347.7052 336.3108 351.01892 336.3108C354.33264 336.3108 357.01892 338.9971 357.01892 342.3108Z"
          fill-rule="nonzero"/>
    <path fill="#46bdc6" clip-path="url(#id_0)"
          d="M442.4419 330.926C442.4419 334.23972 439.7556 336.926 436.4419 336.926C433.12817 336.926 430.4419 334.23972 430.4419 330.926C430.4419 327.6123 433.12817 324.926 436.4419 324.926C439.7556 324.926 442.4419 327.6123 442.4419 330.926Z"
          fill-rule="nonzero"/>
    <path fill="#46bdc6" clip-path="url(#id_0)"
          d="M527.86487 318.7432C527.86487 322.05692 525.1786 324.7432 521.86487 324.7432C518.55115 324.7432 515.86487 322.05692 515.86487 318.7432C515.86487 315.4295 518.55115 312.7432 521.86487 312.7432C525.1786 312.7432 527.86487 315.4295 527.86487 318.7432Z"
          fill-rule="nonzero"/>
    <path fill="#46bdc6" clip-path="url(#id_0)"
          d="M613.28784 297.05756C613.28784 300.37125 610.60156 303.05756 607.28784 303.05756C603.9741 303.05756 601.28784 300.37125 601.28784 297.05756C601.28784 293.74384 603.9741 291.05756 607.28784 291.05756C610.60156 291.05756 613.28784 293.74384 613.28784 297.05756Z"
          fill-rule="nonzero"/>
    <path fill="#000000"
          d="M313.8 410.25L310.47186 401.65625L311.70624 401.65625L313.9406 407.90625Q314.20624 408.65625 314.39374 409.3125Q314.59686 408.60938 314.8625 407.90625L317.175 401.65625L318.33124 401.65625L314.97186 410.25L313.8 410.25ZM323.47186 408.25L324.5656 408.375Q324.3156 409.32812 323.6125 409.85938Q322.90936 410.39062 321.83124 410.39062Q320.47186 410.39062 319.65936 409.54688Q318.8625 408.70312 318.8625 407.1875Q318.8625 405.625 319.675 404.76562Q320.4875 403.89062 321.76874 403.89062Q323.01874 403.89062 323.8 404.73438Q324.59686 405.57812 324.59686 407.125Q324.59686 407.21875 324.59686 407.40625L319.95624 407.40625Q320.01874 408.4375 320.53436 408.98438Q321.05 409.51562 321.83124 409.51562Q322.40936 409.51562 322.8156 409.21875Q323.2375 408.90625 323.47186 408.25ZM320.01874 406.54688L323.4875 406.54688Q323.425 405.75 323.09686 405.35938Q322.58124 404.75 321.78436 404.75Q321.05 404.75 320.55 405.23438Q320.0656 405.71875 320.01874 406.54688ZM326.20624 410.25L326.20624 404.03125L327.15936 404.03125L327.15936 404.96875Q327.51874 404.3125 327.8156 404.10938Q328.1281 403.89062 328.5031 403.89062Q329.03436 403.89062 329.58124 404.21875L329.22186 405.20312Q328.83124 404.96875 328.45624 404.96875Q328.09686 404.96875 327.8156 405.1875Q327.55 405.39062 327.4406 405.76562Q327.2531 406.32812 327.2531 406.98438L327.2531 410.25L326.20624 410.25ZM332.51874 409.3125L332.675 410.23438Q332.22186 410.32812 331.8781 410.32812Q331.3 410.32812 330.9875 410.15625Q330.675 409.96875 330.53436 409.67188Q330.40936 409.375 330.40936 408.42188L330.40936 404.84375L329.64374 404.84375L329.64374 404.03125L330.40936 404.03125L330.40936 402.48438L331.45624 401.85938L331.45624 404.03125L332.51874 404.03125L332.51874 404.84375L331.45624 404.84375L331.45624 408.48438Q331.45624 408.9375 331.5031 409.0625Q331.5656 409.1875 331.6906 409.26562Q331.8156 409.34375 332.05 409.34375Q332.2375 409.34375 332.51874 409.3125ZM333.22186 402.875L333.22186 401.65625L334.28436 401.65625L334.28436 402.875L333.22186 402.875ZM333.22186 410.25L333.22186 404.03125L334.28436 404.03125L334.28436 410.25L333.22186 410.25ZM340.28436 407.96875L341.3156 408.10938Q341.14374 409.17188 340.4406 409.78125Q339.7375 410.39062 338.72186 410.39062Q337.4406 410.39062 336.65936 409.5625Q335.89374 408.71875 335.89374 407.15625Q335.89374 406.15625 336.22186 405.40625Q336.5656 404.64062 337.2375 404.26562Q337.925 403.89062 338.7375 403.89062Q339.7375 403.89062 340.3781 404.40625Q341.03436 404.90625 341.22186 405.85938L340.1906 406.01562Q340.05 405.39062 339.675 405.07812Q339.3 404.75 338.76874 404.75Q337.97186 404.75 337.47186 405.32812Q336.97186 405.89062 336.97186 407.125Q336.97186 408.39062 337.45624 408.95312Q337.9406 409.51562 338.70624 409.51562Q339.33124 409.51562 339.7375 409.14062Q340.15936 408.76562 340.28436 407.96875ZM346.47186 408.25L347.5656 408.375Q347.3156 409.32812 346.6125 409.85938Q345.90936 410.39062 344.83124 410.39062Q343.47186 410.39062 342.65936 409.54688Q341.8625 408.70312 341.8625 407.1875Q341.8625 405.625 342.675 404.76562Q343.4875 403.89062 344.76874 403.89062Q346.01874 403.89062 346.8 404.73438Q347.59686 405.57812 347.59686 407.125Q347.59686 407.21875 347.59686 407.40625L342.95624 407.40625Q343.01874 408.4375 343.53436 408.98438Q344.05 409.51562 344.83124 409.51562Q345.40936 409.51562 345.8156 409.21875Q346.2375 408.90625 346.47186 408.25ZM343.01874 406.54688L346.4875 406.54688Q346.425 405.75 346.09686 405.35938Q345.58124 404.75 344.78436 404.75Q344.05 404.75 343.55 405.23438Q343.0656 405.71875 343.01874 406.54688ZM348.8 408.39062L349.83124 408.23438Q349.925 408.85938 350.3156 409.1875Q350.72186 409.51562 351.45624 409.51562Q352.175 409.51562 352.51874 409.23438Q352.8781 408.9375 352.8781 408.53125Q352.8781 408.17188 352.5656 407.96875Q352.34686 407.82812 351.4875 407.60938Q350.33124 407.3125 349.8781 407.10938Q349.4406 406.89062 349.20624 406.51562Q348.97186 406.14062 348.97186 405.67188Q348.97186 405.26562 349.15936 404.90625Q349.34686 404.54688 349.675 404.3125Q349.925 404.14062 350.34686 404.01562Q350.76874 403.89062 351.26874 403.89062Q351.9875 403.89062 352.53436 404.10938Q353.09686 404.3125 353.3625 404.67188Q353.6281 405.03125 353.72186 405.625L352.6906 405.76562Q352.6281 405.29688 352.28436 405.03125Q351.95624 404.75 351.33124 404.75Q350.6125 404.75 350.3 405.0Q349.9875 405.23438 349.9875 405.5625Q349.9875 405.76562 350.1125 405.92188Q350.2531 406.09375 350.51874 406.20312Q350.675 406.26562 351.45624 406.46875Q352.58124 406.78125 353.01874 406.96875Q353.45624 407.15625 353.70624 407.51562Q353.95624 407.875 353.95624 408.42188Q353.95624 408.95312 353.64374 409.42188Q353.34686 409.875 352.76874 410.14062Q352.1906 410.39062 351.45624 410.39062Q350.2375 410.39062 349.59686 409.89062Q348.97186 409.375 348.8 408.39062ZM358.34686 410.25L358.34686 401.65625L359.5031 401.65625L364.01874 408.40625L364.01874 401.65625L365.1125 401.65625L365.1125 410.25L363.9406 410.25L359.425 403.5L359.425 410.25L358.34686 410.25ZM371.3 410.25L371.3 409.32812Q370.5656 410.39062 369.3156 410.39062Q368.76874 410.39062 368.28436 410.1875Q367.8156 409.96875 367.58124 409.65625Q367.34686 409.32812 367.2531 408.85938Q367.1906 408.5625 367.1906 407.875L367.1906 404.03125L368.2531 404.03125L368.2531 407.48438Q368.2531 408.29688 368.3156 408.59375Q368.40936 409.0 368.72186 409.25Q369.05 409.48438 369.53436 409.48438Q370.0031 409.48438 370.40936 409.25Q370.83124 409.0 371.0031 408.57812Q371.1906 408.15625 371.1906 407.35938L371.1906 404.03125L372.2375 404.03125L372.2375 410.25L371.3 410.25ZM374.22186 410.25L374.22186 404.03125L375.15936 404.03125L375.15936 404.90625Q375.45624 404.4375 375.9406 404.17188Q376.425 403.89062 377.05 403.89062Q377.7375 403.89062 378.175 404.17188Q378.6281 404.45312 378.8 404.96875Q379.55 403.89062 380.72186 403.89062Q381.65936 403.89062 382.14374 404.40625Q382.64374 404.90625 382.64374 405.98438L382.64374 410.25L381.59686 410.25L381.59686 406.32812Q381.59686 405.70312 381.4875 405.42188Q381.39374 405.14062 381.1281 404.96875Q380.8625 404.79688 380.4875 404.79688Q379.83124 404.79688 379.39374 405.23438Q378.97186 405.67188 378.97186 406.64062L378.97186 410.25L377.90936 410.25L377.90936 406.20312Q377.90936 405.5 377.64374 405.15625Q377.39374 404.79688 376.8156 404.79688Q376.3625 404.79688 375.9875 405.03125Q375.6125 405.26562 375.4406 405.71875Q375.26874 406.17188 375.26874 407.01562L375.26874 410.25L374.22186 410.25ZM385.1906 410.25L384.20624 410.25L384.20624 401.65625L385.26874 401.65625L385.26874 404.71875Q385.9406 403.89062 386.97186 403.89062Q387.55 403.89062 388.05 404.125Q388.5656 404.34375 388.89374 404.76562Q389.2375 405.1875 389.425 405.78125Q389.6125 406.375 389.6125 407.04688Q389.6125 408.64062 388.8156 409.51562Q388.01874 410.39062 386.925 410.39062Q385.8156 410.39062 385.1906 409.46875L385.1906 410.25ZM385.175 407.09375Q385.175 408.20312 385.4875 408.70312Q385.9875 409.51562 386.83124 409.51562Q387.51874 409.51562 388.01874 408.92188Q388.53436 408.32812 388.53436 407.125Q388.53436 405.90625 388.05 405.32812Q387.5656 404.75 386.8781 404.75Q386.1906 404.75 385.675 405.35938Q385.175 405.95312 385.175 407.09375ZM395.47186 408.25L396.5656 408.375Q396.3156 409.32812 395.6125 409.85938Q394.90936 410.39062 393.83124 410.39062Q392.47186 410.39062 391.65936 409.54688Q390.8625 408.70312 390.8625 407.1875Q390.8625 405.625 391.675 404.76562Q392.4875 403.89062 393.76874 403.89062Q395.01874 403.89062 395.8 404.73438Q396.59686 405.57812 396.59686 407.125Q396.59686 407.21875 396.59686 407.40625L391.95624 407.40625Q392.01874 408.4375 392.53436 408.98438Q393.05 409.51562 393.83124 409.51562Q394.40936 409.51562 394.8156 409.21875Q395.2375 408.90625 395.47186 408.25ZM392.01874 406.54688L395.4875 406.54688Q395.425 405.75 395.09686 405.35938Q394.58124 404.75 393.78436 404.75Q393.05 404.75 392.55 405.23438Q392.0656 405.71875 392.01874 406.54688ZM398.20624 410.25L398.20624 404.03125L399.15936 404.03125L399.15936 404.96875Q399.51874 404.3125 399.8156 404.10938Q400.1281 403.89062 400.5031 403.89062Q401.03436 403.89062 401.58124 404.21875L401.22186 405.20312Q400.83124 404.96875 400.45624 404.96875Q400.09686 404.96875 399.8156 405.1875Q399.55 405.39062 399.4406 405.76562Q399.2531 406.32812 399.2531 406.98438L399.2531 410.25L398.20624 410.25Z"
          fill-rule="nonzero"/>
    <path fill="#000000"
          d="M32.75 235.07812L24.15625 235.07812L24.15625 232.10938Q24.15625 231.10938 24.28125 230.57812Q24.453125 229.84375 24.890625 229.32812Q25.46875 228.64062 26.375 228.3125Q27.265625 227.96875 28.40625 227.96875Q29.390625 227.96875 30.140625 228.20312Q30.890625 228.42188 31.390625 228.78125Q31.890625 229.14062 32.171875 229.57812Q32.453125 230.0 32.609375 230.59375Q32.75 231.1875 32.75 231.96875L32.75 235.07812ZM31.734375 233.9375L31.734375 232.10938Q31.734375 231.25 31.578125 230.76562Q31.421875 230.28125 31.125 230.0Q30.734375 229.59375 30.046875 229.375Q29.359375 229.14062 28.390625 229.14062Q27.046875 229.14062 26.328125 229.59375Q25.59375 230.03125 25.34375 230.65625Q25.171875 231.125 25.171875 232.125L25.171875 233.9375L31.734375 233.9375ZM32.75 222.125L31.828125 222.125Q32.890625 222.85938 32.890625 224.10938Q32.890625 224.65625 32.6875 225.14062Q32.46875 225.60938 32.15625 225.84375Q31.828125 226.07812 31.359375 226.17188Q31.0625 226.23438 30.375 226.23438L26.53125 226.23438L26.53125 225.17188L29.984375 225.17188Q30.796875 225.17188 31.09375 225.10938Q31.5 225.01562 31.75 224.70312Q31.984375 224.375 31.984375 223.89062Q31.984375 223.42188 31.75 223.01562Q31.5 222.59375 31.078125 222.42188Q30.65625 222.23438 29.859375 222.23438L26.53125 222.23438L26.53125 221.1875L32.75 221.1875L32.75 222.125ZM32.75 219.21875L26.53125 219.21875L26.53125 218.26562L27.46875 218.26562Q26.8125 217.90625 26.609375 217.60938Q26.390625 217.29688 26.390625 216.92188Q26.390625 216.39062 26.71875 215.84375L27.703125 216.20312Q27.46875 216.59375 27.46875 216.96875Q27.46875 217.32812 27.6875 217.60938Q27.890625 217.875 28.265625 217.98438Q28.828125 218.17188 29.484375 218.17188L32.75 218.17188L32.75 219.21875ZM31.984375 211.14062Q32.484375 211.73438 32.6875 212.28125Q32.890625 212.8125 32.890625 213.4375Q32.890625 214.46875 32.390625 215.01562Q31.890625 215.5625 31.109375 215.5625Q30.65625 215.5625 30.28125 215.35938Q29.890625 215.15625 29.671875 214.8125Q29.4375 214.46875 29.328125 214.04688Q29.234375 213.75 29.15625 213.10938Q29.015625 211.84375 28.796875 211.23438Q28.578125 211.23438 28.53125 211.23438Q27.875 211.23438 27.609375 211.53125Q27.265625 211.9375 27.265625 212.73438Q27.265625 213.46875 27.53125 213.82812Q27.78125 214.1875 28.4375 214.35938L28.296875 215.39062Q27.640625 215.25 27.234375 214.92188Q26.828125 214.59375 26.609375 213.98438Q26.390625 213.375 26.390625 212.57812Q26.390625 211.78125 26.578125 211.28125Q26.765625 210.78125 27.046875 210.54688Q27.328125 210.3125 27.765625 210.21875Q28.03125 210.17188 28.734375 210.17188L30.140625 210.17188Q31.609375 210.17188 32.0 210.10938Q32.390625 210.03125 32.75 209.82812L32.75 210.9375Q32.421875 211.09375 31.984375 211.14062ZM29.625 211.23438Q29.859375 211.8125 30.03125 212.95312Q30.125 213.60938 30.25 213.875Q30.359375 214.14062 30.578125 214.29688Q30.796875 214.4375 31.078125 214.4375Q31.5 214.4375 31.78125 214.125Q32.0625 213.79688 32.0625 213.1875Q32.0625 212.57812 31.796875 212.10938Q31.53125 211.625 31.0625 211.40625Q30.703125 211.23438 30.015625 211.23438L29.625 211.23438ZM31.8125 205.90625L32.734375 205.75Q32.828125 206.20312 32.828125 206.54688Q32.828125 207.125 32.65625 207.4375Q32.46875 207.75 32.171875 207.89062Q31.875 208.01562 30.921875 208.01562L27.34375 208.01562L27.34375 208.78125L26.53125 208.78125L26.53125 208.01562L24.984375 208.01562L24.359375 206.96875L26.53125 206.96875L26.53125 205.90625L27.34375 205.90625L27.34375 206.96875L30.984375 206.96875Q31.4375 206.96875 31.5625 206.92188Q31.6875 206.85938 31.765625 206.73438Q31.84375 206.60938 31.84375 206.375Q31.84375 206.1875 31.8125 205.90625ZM25.375 205.20312L24.15625 205.20312L24.15625 204.14062L25.375 204.14062L25.375 205.20312ZM32.75 205.20312L26.53125 205.20312L26.53125 204.14062L32.75 204.14062L32.75 205.20312ZM29.640625 202.59375Q27.90625 202.59375 27.078125 201.64062Q26.390625 200.84375 26.390625 199.6875Q26.390625 198.40625 27.234375 197.59375Q28.0625 196.76562 29.546875 196.76562Q30.75 196.76562 31.4375 197.125Q32.125 197.48438 32.515625 198.1875Q32.890625 198.875 32.890625 199.6875Q32.890625 200.98438 32.0625 201.79688Q31.21875 202.59375 29.640625 202.59375ZM29.640625 201.51562Q30.828125 201.51562 31.421875 201.0Q32.015625 200.46875 32.015625 199.6875Q32.015625 198.89062 31.421875 198.375Q30.828125 197.85938 29.609375 197.85938Q28.453125 197.85938 27.859375 198.39062Q27.265625 198.90625 27.265625 199.6875Q27.265625 200.46875 27.859375 201.0Q28.4375 201.51562 29.640625 201.51562ZM32.75 195.20312L26.53125 195.20312L26.53125 194.26562L27.40625 194.26562Q26.390625 193.57812 26.390625 192.28125Q26.390625 191.71875 26.59375 191.25Q26.796875 190.76562 27.125 190.53125Q27.453125 190.29688 27.890625 190.20312Q28.1875 190.15625 28.921875 190.15625L32.75 190.15625L32.75 191.20312L28.96875 191.20312Q28.3125 191.20312 28.0 191.32812Q27.6875 191.45312 27.5 191.76562Q27.296875 192.07812 27.296875 192.5Q27.296875 193.17188 27.734375 193.67188Q28.15625 194.15625 29.34375 194.15625L32.75 194.15625L32.75 195.20312ZM32.75 187.9375L31.546875 187.9375L31.546875 186.73438L32.75 186.73438Q33.40625 186.73438 33.8125 186.96875Q34.234375 187.20312 34.453125 187.70312L34.0 188.0Q33.859375 187.67188 33.5625 187.51562Q33.28125 187.35938 32.75 187.32812L32.75 187.9375ZM32.75 182.20312L26.53125 182.20312L26.53125 181.26562L27.40625 181.26562Q26.9375 180.96875 26.671875 180.48438Q26.390625 180.0 26.390625 179.375Q26.390625 178.6875 26.671875 178.25Q26.953125 177.79688 27.46875 177.625Q26.390625 176.875 26.390625 175.70312Q26.390625 174.76562 26.90625 174.28125Q27.40625 173.78125 28.484375 173.78125L32.75 173.78125L32.75 174.82812L28.828125 174.82812Q28.203125 174.82812 27.921875 174.9375Q27.640625 175.03125 27.46875 175.29688Q27.296875 175.5625 27.296875 175.9375Q27.296875 176.59375 27.734375 177.03125Q28.171875 177.45312 29.140625 177.45312L32.75 177.45312L32.75 178.51562L28.703125 178.51562Q28.0 178.51562 27.65625 178.78125Q27.296875 179.03125 27.296875 179.60938Q27.296875 180.0625 27.53125 180.4375Q27.765625 180.8125 28.21875 180.98438Q28.671875 181.15625 29.515625 181.15625L32.75 181.15625L32.75 182.20312ZM30.890625 172.625L30.734375 171.59375Q31.359375 171.5 31.6875 171.10938Q32.015625 170.70312 32.015625 169.96875Q32.015625 169.25 31.734375 168.90625Q31.4375 168.54688 31.03125 168.54688Q30.671875 168.54688 30.46875 168.85938Q30.328125 169.07812 30.109375 169.9375Q29.8125 171.09375 29.609375 171.54688Q29.390625 171.98438 29.015625 172.21875Q28.640625 172.45312 28.171875 172.45312Q27.765625 172.45312 27.40625 172.26562Q27.046875 172.07812 26.8125 171.75Q26.640625 171.5 26.515625 171.07812Q26.390625 170.65625 26.390625 170.15625Q26.390625 169.4375 26.609375 168.89062Q26.8125 168.32812 27.171875 168.0625Q27.53125 167.79688 28.125 167.70312L28.265625 168.73438Q27.796875 168.79688 27.53125 169.14062Q27.25 169.46875 27.25 170.09375Q27.25 170.8125 27.5 171.125Q27.734375 171.4375 28.0625 171.4375Q28.265625 171.4375 28.421875 171.3125Q28.59375 171.17188 28.703125 170.90625Q28.765625 170.75 28.96875 169.96875Q29.28125 168.84375 29.46875 168.40625Q29.65625 167.96875 30.015625 167.71875Q30.375 167.46875 30.921875 167.46875Q31.453125 167.46875 31.921875 167.78125Q32.375 168.07812 32.640625 168.65625Q32.890625 169.23438 32.890625 169.96875Q32.890625 171.1875 32.390625 171.82812Q31.875 172.45312 30.890625 172.625Z"
          fill-rule="nonzero"/>
    <path fill="#000000"
          d="M82.25 361.01562Q82.25 359.48438 82.5625 358.5625Q82.875 357.625 83.484375 357.125Q84.109375 356.625 85.046875 356.625Q85.734375 356.625 86.25 356.90625Q86.78125 357.1875 87.125 357.71875Q87.46875 358.23438 87.65625 358.98438Q87.84375 359.73438 87.84375 361.01562Q87.84375 362.53125 87.53125 363.45312Q87.234375 364.375 86.609375 364.89062Q86.0 365.39062 85.046875 365.39062Q83.8125 365.39062 83.09375 364.5Q82.25 363.4375 82.25 361.01562ZM83.328125 361.01562Q83.328125 363.125 83.828125 363.82812Q84.328125 364.53125 85.046875 364.53125Q85.78125 364.53125 86.265625 363.82812Q86.765625 363.125 86.765625 361.01562Q86.765625 358.89062 86.265625 358.20312Q85.78125 357.5 85.03125 357.5Q84.3125 357.5 83.875 358.10938Q83.328125 358.89062 83.328125 361.01562Z"
          fill-rule="nonzero"/>
    <path fill="#000000"
          d="M58.21875 298.75L57.171875 298.75L57.171875 292.03125Q56.78125 292.39062 56.15625 292.76562Q55.546875 293.125 55.0625 293.29688L55.0625 292.28125Q55.9375 291.85938 56.59375 291.28125Q57.265625 290.6875 57.546875 290.125L58.21875 290.125L58.21875 298.75ZM61.25 294.51562Q61.25 292.98438 61.5625 292.0625Q61.875 291.125 62.484375 290.625Q63.109375 290.125 64.046875 290.125Q64.734375 290.125 65.25 290.40625Q65.78125 290.6875 66.125 291.21875Q66.46875 291.73438 66.65625 292.48438Q66.84375 293.23438 66.84375 294.51562Q66.84375 296.03125 66.53125 296.95312Q66.234375 297.875 65.609375 298.39062Q65.0 298.89062 64.046875 298.89062Q62.8125 298.89062 62.09375 298.0Q61.25 296.9375 61.25 294.51562ZM62.328125 294.51562Q62.328125 296.625 62.828125 297.32812Q63.328125 298.03125 64.046875 298.03125Q64.78125 298.03125 65.265625 297.32812Q65.765625 296.625 65.765625 294.51562Q65.765625 292.39062 65.265625 291.70312Q64.78125 291.0 64.03125 291.0Q63.3125 291.0 62.875 291.60938Q62.328125 292.39062 62.328125 294.51562ZM68.25 294.51562Q68.25 292.98438 68.5625 292.0625Q68.875 291.125 69.484375 290.625Q70.109375 290.125 71.046875 290.125Q71.734375 290.125 72.25 290.40625Q72.78125 290.6875 73.125 291.21875Q73.46875 291.73438 73.65625 292.48438Q73.84375 293.23438 73.84375 294.51562Q73.84375 296.03125 73.53125 296.95312Q73.234375 297.875 72.609375 298.39062Q72.0 298.89062 71.046875 298.89062Q69.8125 298.89062 69.09375 298.0Q68.25 296.9375 68.25 294.51562ZM69.328125 294.51562Q69.328125 296.625 69.828125 297.32812Q70.328125 298.03125 71.046875 298.03125Q71.78125 298.03125 72.265625 297.32812Q72.765625 296.625 72.765625 294.51562Q72.765625 292.39062 72.265625 291.70312Q71.78125 291.0 71.03125 291.0Q70.3125 291.0 69.875 291.60938Q69.328125 292.39062 69.328125 294.51562ZM75.25 294.51562Q75.25 292.98438 75.5625 292.0625Q75.875 291.125 76.484375 290.625Q77.109375 290.125 78.046875 290.125Q78.734375 290.125 79.25 290.40625Q79.78125 290.6875 80.125 291.21875Q80.46875 291.73438 80.65625 292.48438Q80.84375 293.23438 80.84375 294.51562Q80.84375 296.03125 80.53125 296.95312Q80.234375 297.875 79.609375 298.39062Q79.0 298.89062 78.046875 298.89062Q76.8125 298.89062 76.09375 298.0Q75.25 296.9375 75.25 294.51562ZM76.328125 294.51562Q76.328125 296.625 76.828125 297.32812Q77.328125 298.03125 78.046875 298.03125Q78.78125 298.03125 79.265625 297.32812Q79.765625 296.625 79.765625 294.51562Q79.765625 292.39062 79.265625 291.70312Q78.78125 291.0 78.03125 291.0Q77.3125 291.0 76.875 291.60938Q76.328125 292.39062 76.328125 294.51562ZM82.25 294.51562Q82.25 292.98438 82.5625 292.0625Q82.875 291.125 83.484375 290.625Q84.109375 290.125 85.046875 290.125Q85.734375 290.125 86.25 290.40625Q86.78125 290.6875 87.125 291.21875Q87.46875 291.73438 87.65625 292.48438Q87.84375 293.23438 87.84375 294.51562Q87.84375 296.03125 87.53125 296.95312Q87.234375 297.875 86.609375 298.39062Q86.0 298.89062 85.046875 298.89062Q83.8125 298.89062 83.09375 298.0Q82.25 296.9375 82.25 294.51562ZM83.328125 294.51562Q83.328125 296.625 83.828125 297.32812Q84.328125 298.03125 85.046875 298.03125Q85.78125 298.03125 86.265625 297.32812Q86.765625 296.625 86.765625 294.51562Q86.765625 292.39062 86.265625 291.70312Q85.78125 291.0 85.03125 291.0Q84.3125 291.0 83.875 291.60938Q83.328125 292.39062 83.328125 294.51562Z"
          fill-rule="nonzero"/>
    <path fill="#000000"
          d="M59.796875 231.23438L59.796875 232.25L54.109375 232.25Q54.109375 231.875 54.234375 231.51562Q54.453125 230.9375 54.921875 230.375Q55.40625 229.8125 56.3125 229.07812Q57.71875 227.92188 58.203125 227.25Q58.703125 226.57812 58.703125 225.98438Q58.703125 225.35938 58.25 224.9375Q57.796875 224.5 57.078125 224.5Q56.3125 224.5 55.859375 224.95312Q55.40625 225.40625 55.390625 226.21875L54.3125 226.10938Q54.421875 224.89062 55.140625 224.26562Q55.875 223.625 57.109375 223.625Q58.34375 223.625 59.0625 224.3125Q59.78125 225.0 59.78125 226.01562Q59.78125 226.53125 59.5625 227.03125Q59.359375 227.51562 58.859375 228.07812Q58.375 228.625 57.25 229.57812Q56.296875 230.375 56.015625 230.67188Q55.75 230.95312 55.578125 231.23438L59.796875 231.23438ZM61.25 228.01562Q61.25 226.48438 61.5625 225.5625Q61.875 224.625 62.484375 224.125Q63.109375 223.625 64.046875 223.625Q64.734375 223.625 65.25 223.90625Q65.78125 224.1875 66.125 224.71875Q66.46875 225.23438 66.65625 225.98438Q66.84375 226.73438 66.84375 228.01562Q66.84375 229.53125 66.53125 230.45312Q66.234375 231.375 65.609375 231.89062Q65.0 232.39062 64.046875 232.39062Q62.8125 232.39062 62.09375 231.5Q61.25 230.4375 61.25 228.01562ZM62.328125 228.01562Q62.328125 230.125 62.828125 230.82812Q63.328125 231.53125 64.046875 231.53125Q64.78125 231.53125 65.265625 230.82812Q65.765625 230.125 65.765625 228.01562Q65.765625 225.89062 65.265625 225.20312Q64.78125 224.5 64.03125 224.5Q63.3125 224.5 62.875 225.10938Q62.328125 225.89062 62.328125 228.01562ZM68.25 228.01562Q68.25 226.48438 68.5625 225.5625Q68.875 224.625 69.484375 224.125Q70.109375 223.625 71.046875 223.625Q71.734375 223.625 72.25 223.90625Q72.78125 224.1875 73.125 224.71875Q73.46875 225.23438 73.65625 225.98438Q73.84375 226.73438 73.84375 228.01562Q73.84375 229.53125 73.53125 230.45312Q73.234375 231.375 72.609375 231.89062Q72.0 232.39062 71.046875 232.39062Q69.8125 232.39062 69.09375 231.5Q68.25 230.4375 68.25 228.01562ZM69.328125 228.01562Q69.328125 230.125 69.828125 230.82812Q70.328125 231.53125 71.046875 231.53125Q71.78125 231.53125 72.265625 230.82812Q72.765625 230.125 72.765625 228.01562Q72.765625 225.89062 72.265625 225.20312Q71.78125 224.5 71.03125 224.5Q70.3125 224.5 69.875 225.10938Q69.328125 225.89062 69.328125 228.01562ZM75.25 228.01562Q75.25 226.48438 75.5625 225.5625Q75.875 224.625 76.484375 224.125Q77.109375 223.625 78.046875 223.625Q78.734375 223.625 79.25 223.90625Q79.78125 224.1875 80.125 224.71875Q80.46875 225.23438 80.65625 225.98438Q80.84375 226.73438 80.84375 228.01562Q80.84375 229.53125 80.53125 230.45312Q80.234375 231.375 79.609375 231.89062Q79.0 232.39062 78.046875 232.39062Q76.8125 232.39062 76.09375 231.5Q75.25 230.4375 75.25 228.01562ZM76.328125 228.01562Q76.328125 230.125 76.828125 230.82812Q77.328125 231.53125 78.046875 231.53125Q78.78125 231.53125 79.265625 230.82812Q79.765625 230.125 79.765625 228.01562Q79.765625 225.89062 79.265625 225.20312Q78.78125 224.5 78.03125 224.5Q77.3125 224.5 76.875 225.10938Q76.328125 225.89062 76.328125 228.01562ZM82.25 228.01562Q82.25 226.48438 82.5625 225.5625Q82.875 224.625 83.484375 224.125Q84.109375 223.625 85.046875 223.625Q85.734375 223.625 86.25 223.90625Q86.78125 224.1875 87.125 224.71875Q87.46875 225.23438 87.65625 225.98438Q87.84375 226.73438 87.84375 228.01562Q87.84375 229.53125 87.53125 230.45312Q87.234375 231.375 86.609375 231.89062Q86.0 232.39062 85.046875 232.39062Q83.8125 232.39062 83.09375 231.5Q82.25 230.4375 82.25 228.01562ZM83.328125 228.01562Q83.328125 230.125 83.828125 230.82812Q84.328125 231.53125 85.046875 231.53125Q85.78125 231.53125 86.265625 230.82812Q86.765625 230.125 86.765625 228.01562Q86.765625 225.89062 86.265625 225.20312Q85.78125 224.5 85.03125 224.5Q84.3125 224.5 83.875 225.10938Q83.328125 225.89062 83.328125 228.01562Z"
          fill-rule="nonzero"/>
    <path fill="#000000"
          d="M54.25 163.48438L55.3125 163.34375Q55.484375 164.23438 55.921875 164.64062Q56.359375 165.03125 56.984375 165.03125Q57.734375 165.03125 58.25 164.51562Q58.765625 164.0 58.765625 163.23438Q58.765625 162.51562 58.28125 162.04688Q57.8125 161.5625 57.078125 161.5625Q56.78125 161.5625 56.328125 161.6875L56.453125 160.75Q56.5625 160.76562 56.625 160.76562Q57.296875 160.76562 57.828125 160.42188Q58.375 160.0625 58.375 159.32812Q58.375 158.75 57.984375 158.375Q57.59375 157.98438 56.96875 157.98438Q56.359375 157.98438 55.9375 158.375Q55.53125 158.76562 55.421875 159.53125L54.359375 159.34375Q54.546875 158.29688 55.234375 157.71875Q55.921875 157.125 56.9375 157.125Q57.640625 157.125 58.234375 157.4375Q58.828125 157.73438 59.140625 158.25Q59.453125 158.76562 59.453125 159.35938Q59.453125 159.90625 59.15625 160.375Q58.859375 160.82812 58.28125 161.09375Q59.03125 161.26562 59.453125 161.82812Q59.875 162.375 59.875 163.21875Q59.875 164.34375 59.046875 165.125Q58.234375 165.90625 56.984375 165.90625Q55.859375 165.90625 55.109375 165.23438Q54.359375 164.54688 54.25 163.48438ZM61.25 161.51562Q61.25 159.98438 61.5625 159.0625Q61.875 158.125 62.484375 157.625Q63.109375 157.125 64.046875 157.125Q64.734375 157.125 65.25 157.40625Q65.78125 157.6875 66.125 158.21875Q66.46875 158.73438 66.65625 159.48438Q66.84375 160.23438 66.84375 161.51562Q66.84375 163.03125 66.53125 163.95312Q66.234375 164.875 65.609375 165.39062Q65.0 165.89062 64.046875 165.89062Q62.8125 165.89062 62.09375 165.0Q61.25 163.9375 61.25 161.51562ZM62.328125 161.51562Q62.328125 163.625 62.828125 164.32812Q63.328125 165.03125 64.046875 165.03125Q64.78125 165.03125 65.265625 164.32812Q65.765625 163.625 65.765625 161.51562Q65.765625 159.39062 65.265625 158.70312Q64.78125 158.0 64.03125 158.0Q63.3125 158.0 62.875 158.60938Q62.328125 159.39062 62.328125 161.51562ZM68.25 161.51562Q68.25 159.98438 68.5625 159.0625Q68.875 158.125 69.484375 157.625Q70.109375 157.125 71.046875 157.125Q71.734375 157.125 72.25 157.40625Q72.78125 157.6875 73.125 158.21875Q73.46875 158.73438 73.65625 159.48438Q73.84375 160.23438 73.84375 161.51562Q73.84375 163.03125 73.53125 163.95312Q73.234375 164.875 72.609375 165.39062Q72.0 165.89062 71.046875 165.89062Q69.8125 165.89062 69.09375 165.0Q68.25 163.9375 68.25 161.51562ZM69.328125 161.51562Q69.328125 163.625 69.828125 164.32812Q70.328125 165.03125 71.046875 165.03125Q71.78125 165.03125 72.265625 164.32812Q72.765625 163.625 72.765625 161.51562Q72.765625 159.39062 72.265625 158.70312Q71.78125 158.0 71.03125 158.0Q70.3125 158.0 69.875 158.60938Q69.328125 159.39062 69.328125 161.51562ZM75.25 161.51562Q75.25 159.98438 75.5625 159.0625Q75.875 158.125 76.484375 157.625Q77.109375 157.125 78.046875 157.125Q78.734375 157.125 79.25 157.40625Q79.78125 157.6875 80.125 158.21875Q80.46875 158.73438 80.65625 159.48438Q80.84375 160.23438 80.84375 161.51562Q80.84375 163.03125 80.53125 163.95312Q80.234375 164.875 79.609375 165.39062Q79.0 165.89062 78.046875 165.89062Q76.8125 165.89062 76.09375 165.0Q75.25 163.9375 75.25 161.51562ZM76.328125 161.51562Q76.328125 163.625 76.828125 164.32812Q77.328125 165.03125 78.046875 165.03125Q78.78125 165.03125 79.265625 164.32812Q79.765625 163.625 79.765625 161.51562Q79.765625 159.39062 79.265625 158.70312Q78.78125 158.0 78.03125 158.0Q77.3125 158.0 76.875 158.60938Q76.328125 159.39062 76.328125 161.51562ZM82.25 161.51562Q82.25 159.98438 82.5625 159.0625Q82.875 158.125 83.484375 157.625Q84.109375 157.125 85.046875 157.125Q85.734375 157.125 86.25 157.40625Q86.78125 157.6875 87.125 158.21875Q87.46875 158.73438 87.65625 159.48438Q87.84375 160.23438 87.84375 161.51562Q87.84375 163.03125 87.53125 163.95312Q87.234375 164.875 86.609375 165.39062Q86.0 165.89062 85.046875 165.89062Q83.8125 165.89062 83.09375 165.0Q82.25 163.9375 82.25 161.51562ZM83.328125 161.51562Q83.328125 163.625 83.828125 164.32812Q84.328125 165.03125 85.046875 165.03125Q85.78125 165.03125 86.265625 164.32812Q86.765625 163.625 86.765625 161.51562Q86.765625 159.39062 86.265625 158.70312Q85.78125 158.0 85.03125 158.0Q84.3125 158.0 83.875 158.60938Q83.328125 159.39062 83.328125 161.51562Z"
          fill-rule="nonzero"/>
    <path fill="#000000"
          d="M57.625 99.25L57.625 97.1875L53.90625 97.1875L53.90625 96.21875L57.828125 90.65625L58.6875 90.65625L58.6875 96.21875L59.84375 96.21875L59.84375 97.1875L58.6875 97.1875L58.6875 99.25L57.625 99.25ZM57.625 96.21875L57.625 92.359375L54.9375 96.21875L57.625 96.21875ZM61.25 95.015625Q61.25 93.484375 61.5625 92.5625Q61.875 91.625 62.484375 91.125Q63.109375 90.625 64.046875 90.625Q64.734375 90.625 65.25 90.90625Q65.78125 91.1875 66.125 91.71875Q66.46875 92.234375 66.65625 92.984375Q66.84375 93.734375 66.84375 95.015625Q66.84375 96.53125 66.53125 97.453125Q66.234375 98.375 65.609375 98.890625Q65.0 99.390625 64.046875 99.390625Q62.8125 99.390625 62.09375 98.5Q61.25 97.4375 61.25 95.015625ZM62.328125 95.015625Q62.328125 97.125 62.828125 97.828125Q63.328125 98.53125 64.046875 98.53125Q64.78125 98.53125 65.265625 97.828125Q65.765625 97.125 65.765625 95.015625Q65.765625 92.890625 65.265625 92.203125Q64.78125 91.5 64.03125 91.5Q63.3125 91.5 62.875 92.109375Q62.328125 92.890625 62.328125 95.015625ZM68.25 95.015625Q68.25 93.484375 68.5625 92.5625Q68.875 91.625 69.484375 91.125Q70.109375 90.625 71.046875 90.625Q71.734375 90.625 72.25 90.90625Q72.78125 91.1875 73.125 91.71875Q73.46875 92.234375 73.65625 92.984375Q73.84375 93.734375 73.84375 95.015625Q73.84375 96.53125 73.53125 97.453125Q73.234375 98.375 72.609375 98.890625Q72.0 99.390625 71.046875 99.390625Q69.8125 99.390625 69.09375 98.5Q68.25 97.4375 68.25 95.015625ZM69.328125 95.015625Q69.328125 97.125 69.828125 97.828125Q70.328125 98.53125 71.046875 98.53125Q71.78125 98.53125 72.265625 97.828125Q72.765625 97.125 72.765625 95.015625Q72.765625 92.890625 72.265625 92.203125Q71.78125 91.5 71.03125 91.5Q70.3125 91.5 69.875 92.109375Q69.328125 92.890625 69.328125 95.015625ZM75.25 95.015625Q75.25 93.484375 75.5625 92.5625Q75.875 91.625 76.484375 91.125Q77.109375 90.625 78.046875 90.625Q78.734375 90.625 79.25 90.90625Q79.78125 91.1875 80.125 91.71875Q80.46875 92.234375 80.65625 92.984375Q80.84375 93.734375 80.84375 95.015625Q80.84375 96.53125 80.53125 97.453125Q80.234375 98.375 79.609375 98.890625Q79.0 99.390625 78.046875 99.390625Q76.8125 99.390625 76.09375 98.5Q75.25 97.4375 75.25 95.015625ZM76.328125 95.015625Q76.328125 97.125 76.828125 97.828125Q77.328125 98.53125 78.046875 98.53125Q78.78125 98.53125 79.265625 97.828125Q79.765625 97.125 79.765625 95.015625Q79.765625 92.890625 79.265625 92.203125Q78.78125 91.5 78.03125 91.5Q77.3125 91.5 76.875 92.109375Q76.328125 92.890625 76.328125 95.015625ZM82.25 95.015625Q82.25 93.484375 82.5625 92.5625Q82.875 91.625 83.484375 91.125Q84.109375 90.625 85.046875 90.625Q85.734375 90.625 86.25 90.90625Q86.78125 91.1875 87.125 91.71875Q87.46875 92.234375 87.65625 92.984375Q87.84375 93.734375 87.84375 95.015625Q87.84375 96.53125 87.53125 97.453125Q87.234375 98.375 86.609375 98.890625Q86.0 99.390625 85.046875 99.390625Q83.8125 99.390625 83.09375 98.5Q82.25 97.4375 82.25 95.015625ZM83.328125 95.015625Q83.328125 97.125 83.828125 97.828125Q84.328125 98.53125 85.046875 98.53125Q85.78125 98.53125 86.265625 97.828125Q86.765625 97.125 86.765625 95.015625Q86.765625 92.890625 86.265625 92.203125Q85.78125 91.5 85.03125 91.5Q84.3125 91.5 83.875 92.109375Q83.328125 92.890625 83.328125 95.015625Z"
          fill-rule="nonzero"/>
    <path fill="#000000"
          d="M54.25 30.5L55.359375 30.40625Q55.484375 31.21875 55.921875 31.625Q56.375 32.03125 57.015625 32.03125Q57.765625 32.03125 58.296875 31.453125Q58.828125 30.875 58.828125 29.9375Q58.828125 29.03125 58.3125 28.515625Q57.8125 27.984375 56.984375 27.984375Q56.484375 27.984375 56.0625 28.21875Q55.65625 28.453125 55.421875 28.8125L54.4375 28.6875L55.265625 24.28125L59.546875 24.28125L59.546875 25.28125L56.109375 25.28125L55.65625 27.59375Q56.421875 27.046875 57.265625 27.046875Q58.390625 27.046875 59.15625 27.828125Q59.9375 28.609375 59.9375 29.84375Q59.9375 31.0 59.265625 31.859375Q58.4375 32.890625 57.015625 32.890625Q55.84375 32.890625 55.09375 32.234375Q54.359375 31.578125 54.25 30.5ZM61.25 28.515625Q61.25 26.984375 61.5625 26.0625Q61.875 25.125 62.484375 24.625Q63.109375 24.125 64.046875 24.125Q64.734375 24.125 65.25 24.40625Q65.78125 24.6875 66.125 25.21875Q66.46875 25.734375 66.65625 26.484375Q66.84375 27.234375 66.84375 28.515625Q66.84375 30.03125 66.53125 30.953125Q66.234375 31.875 65.609375 32.390625Q65.0 32.890625 64.046875 32.890625Q62.8125 32.890625 62.09375 32.0Q61.25 30.9375 61.25 28.515625ZM62.328125 28.515625Q62.328125 30.625 62.828125 31.328125Q63.328125 32.03125 64.046875 32.03125Q64.78125 32.03125 65.265625 31.328125Q65.765625 30.625 65.765625 28.515625Q65.765625 26.390625 65.265625 25.703125Q64.78125 25.0 64.03125 25.0Q63.3125 25.0 62.875 25.609375Q62.328125 26.390625 62.328125 28.515625ZM68.25 28.515625Q68.25 26.984375 68.5625 26.0625Q68.875 25.125 69.484375 24.625Q70.109375 24.125 71.046875 24.125Q71.734375 24.125 72.25 24.40625Q72.78125 24.6875 73.125 25.21875Q73.46875 25.734375 73.65625 26.484375Q73.84375 27.234375 73.84375 28.515625Q73.84375 30.03125 73.53125 30.953125Q73.234375 31.875 72.609375 32.390625Q72.0 32.890625 71.046875 32.890625Q69.8125 32.890625 69.09375 32.0Q68.25 30.9375 68.25 28.515625ZM69.328125 28.515625Q69.328125 30.625 69.828125 31.328125Q70.328125 32.03125 71.046875 32.03125Q71.78125 32.03125 72.265625 31.328125Q72.765625 30.625 72.765625 28.515625Q72.765625 26.390625 72.265625 25.703125Q71.78125 25.0 71.03125 25.0Q70.3125 25.0 69.875 25.609375Q69.328125 26.390625 69.328125 28.515625ZM75.25 28.515625Q75.25 26.984375 75.5625 26.0625Q75.875 25.125 76.484375 24.625Q77.109375 24.125 78.046875 24.125Q78.734375 24.125 79.25 24.40625Q79.78125 24.6875 80.125 25.21875Q80.46875 25.734375 80.65625 26.484375Q80.84375 27.234375 80.84375 28.515625Q80.84375 30.03125 80.53125 30.953125Q80.234375 31.875 79.609375 32.390625Q79.0 32.890625 78.046875 32.890625Q76.8125 32.890625 76.09375 32.0Q75.25 30.9375 75.25 28.515625ZM76.328125 28.515625Q76.328125 30.625 76.828125 31.328125Q77.328125 32.03125 78.046875 32.03125Q78.78125 32.03125 79.265625 31.328125Q79.765625 30.625 79.765625 28.515625Q79.765625 26.390625 79.265625 25.703125Q78.78125 25.0 78.03125 25.0Q77.3125 25.0 76.875 25.609375Q76.328125 26.390625 76.328125 28.515625ZM82.25 28.515625Q82.25 26.984375 82.5625 26.0625Q82.875 25.125 83.484375 24.625Q84.109375 24.125 85.046875 24.125Q85.734375 24.125 86.25 24.40625Q86.78125 24.6875 87.125 25.21875Q87.46875 25.734375 87.65625 26.484375Q87.84375 27.234375 87.84375 28.515625Q87.84375 30.03125 87.53125 30.953125Q87.234375 31.875 86.609375 32.390625Q86.0 32.890625 85.046875 32.890625Q83.8125 32.890625 83.09375 32.0Q82.25 30.9375 82.25 28.515625ZM83.328125 28.515625Q83.328125 30.625 83.828125 31.328125Q84.328125 32.03125 85.046875 32.03125Q85.78125 32.03125 86.265625 31.328125Q86.765625 30.625 86.765625 28.515625Q86.765625 26.390625 86.265625 25.703125Q85.78125 25.0 85.03125 25.0Q84.3125 25.0 83.875 25.609375Q83.328125 26.390625 83.328125 28.515625Z"
          fill-rule="nonzero"/>
    <path fill="#000000"
          d="M91.75 374.01562Q91.75 372.48438 92.0625 371.5625Q92.375 370.625 92.984375 370.125Q93.609375 369.625 94.546875 369.625Q95.234375 369.625 95.75 369.90625Q96.28125 370.1875 96.625 370.71875Q96.96875 371.23438 97.15625 371.98438Q97.34375 372.73438 97.34375 374.01562Q97.34375 375.53125 97.03125 376.45312Q96.734375 377.375 96.109375 377.89062Q95.5 378.39062 94.546875 378.39062Q93.3125 378.39062 92.59375 377.5Q91.75 376.4375 91.75 374.01562ZM92.828125 374.01562Q92.828125 376.125 93.328125 376.82812Q93.828125 377.53125 94.546875 377.53125Q95.28125 377.53125 95.765625 376.82812Q96.265625 376.125 96.265625 374.01562Q96.265625 371.89062 95.765625 371.20312Q95.28125 370.5 94.53125 370.5Q93.8125 370.5 93.375 371.10938Q92.828125 371.89062 92.828125 374.01562Z"
          fill-rule="nonzero"/>
    <path fill="#000000"
          d="M252.5647 378.25L251.51782 378.25L251.51782 371.53125Q251.1272 371.89062 250.5022 372.26562Q249.89282 372.625 249.40845 372.79688L249.40845 371.78125Q250.28345 371.35938 250.9397 370.78125Q251.61157 370.1875 251.89282 369.625L252.5647 369.625L252.5647 378.25ZM255.59595 374.01562Q255.59595 372.48438 255.90845 371.5625Q256.22095 370.625 256.83032 370.125Q257.45532 369.625 258.39282 369.625Q259.08032 369.625 259.59595 369.90625Q260.1272 370.1875 260.47095 370.71875Q260.8147 371.23438 261.0022 371.98438Q261.1897 372.73438 261.1897 374.01562Q261.1897 375.53125 260.8772 376.45312Q260.58032 377.375 259.95532 377.89062Q259.34595 378.39062 258.39282 378.39062Q257.15845 378.39062 256.4397 377.5Q255.59595 376.4375 255.59595 374.01562ZM256.67407 374.01562Q256.67407 376.125 257.17407 376.82812Q257.67407 377.53125 258.39282 377.53125Q259.1272 377.53125 259.61157 376.82812Q260.11157 376.125 260.11157 374.01562Q260.11157 371.89062 259.61157 371.20312Q259.1272 370.5 258.3772 370.5Q257.65845 370.5 257.22095 371.10938Q256.67407 371.89062 256.67407 374.01562ZM262.59595 374.01562Q262.59595 372.48438 262.90845 371.5625Q263.22095 370.625 263.83032 370.125Q264.45532 369.625 265.39282 369.625Q266.08032 369.625 266.59595 369.90625Q267.1272 370.1875 267.47095 370.71875Q267.8147 371.23438 268.0022 371.98438Q268.1897 372.73438 268.1897 374.01562Q268.1897 375.53125 267.8772 376.45312Q267.58032 377.375 266.95532 377.89062Q266.34595 378.39062 265.39282 378.39062Q264.15845 378.39062 263.4397 377.5Q262.59595 376.4375 262.59595 374.01562ZM263.67407 374.01562Q263.67407 376.125 264.17407 376.82812Q264.67407 377.53125 265.39282 377.53125Q266.1272 377.53125 266.61157 376.82812Q267.11157 376.125 267.11157 374.01562Q267.11157 371.89062 266.61157 371.20312Q266.1272 370.5 265.3772 370.5Q264.65845 370.5 264.22095 371.10938Q263.67407 371.89062 263.67407 374.01562ZM269.59595 374.01562Q269.59595 372.48438 269.90845 371.5625Q270.22095 370.625 270.83032 370.125Q271.45532 369.625 272.39282 369.625Q273.08032 369.625 273.59595 369.90625Q274.1272 370.1875 274.47095 370.71875Q274.8147 371.23438 275.0022 371.98438Q275.1897 372.73438 275.1897 374.01562Q275.1897 375.53125 274.8772 376.45312Q274.58032 377.375 273.95532 377.89062Q273.34595 378.39062 272.39282 378.39062Q271.15845 378.39062 270.4397 377.5Q269.59595 376.4375 269.59595 374.01562ZM270.67407 374.01562Q270.67407 376.125 271.17407 376.82812Q271.67407 377.53125 272.39282 377.53125Q273.1272 377.53125 273.61157 376.82812Q274.11157 376.125 274.11157 374.01562Q274.11157 371.89062 273.61157 371.20312Q273.1272 370.5 272.3772 370.5Q271.65845 370.5 271.22095 371.10938Q270.67407 371.89062 270.67407 374.01562ZM276.59595 374.01562Q276.59595 372.48438 276.90845 371.5625Q277.22095 370.625 277.83032 370.125Q278.45532 369.625 279.39282 369.625Q280.08032 369.625 280.59595 369.90625Q281.1272 370.1875 281.47095 370.71875Q281.8147 371.23438 282.0022 371.98438Q282.1897 372.73438 282.1897 374.01562Q282.1897 375.53125 281.8772 376.45312Q281.58032 377.375 280.95532 377.89062Q280.34595 378.39062 279.39282 378.39062Q278.15845 378.39062 277.4397 377.5Q276.59595 376.4375 276.59595 374.01562ZM277.67407 374.01562Q277.67407 376.125 278.17407 376.82812Q278.67407 377.53125 279.39282 377.53125Q280.1272 377.53125 280.61157 376.82812Q281.11157 376.125 281.11157 374.01562Q281.11157 371.89062 280.61157 371.20312Q280.1272 370.5 279.3772 370.5Q278.65845 370.5 278.22095 371.10938Q277.67407 371.89062 277.67407 374.01562Z"
          fill-rule="nonzero"/>
    <path fill="#000000"
          d="M424.98877 377.23438L424.98877 378.25L419.30127 378.25Q419.30127 377.875 419.42627 377.51562Q419.64502 376.9375 420.11377 376.375Q420.59814 375.8125 421.5044 375.07812Q422.91064 373.92188 423.39502 373.25Q423.89502 372.57812 423.89502 371.98438Q423.89502 371.35938 423.4419 370.9375Q422.98877 370.5 422.27002 370.5Q421.5044 370.5 421.05127 370.95312Q420.59814 371.40625 420.58252 372.21875L419.5044 372.10938Q419.61377 370.89062 420.33252 370.26562Q421.0669 369.625 422.30127 369.625Q423.53564 369.625 424.2544 370.3125Q424.97314 371.0 424.97314 372.01562Q424.97314 372.53125 424.7544 373.03125Q424.55127 373.51562 424.05127 374.07812Q423.5669 374.625 422.4419 375.57812Q421.48877 376.375 421.20752 376.67188Q420.9419 376.95312 420.77002 377.23438L424.98877 377.23438ZM426.4419 374.01562Q426.4419 372.48438 426.7544 371.5625Q427.0669 370.625 427.67627 370.125Q428.30127 369.625 429.23877 369.625Q429.92627 369.625 430.4419 369.90625Q430.97314 370.1875 431.3169 370.71875Q431.66064 371.23438 431.84814 371.98438Q432.03564 372.73438 432.03564 374.01562Q432.03564 375.53125 431.72314 376.45312Q431.42627 377.375 430.80127 377.89062Q430.1919 378.39062 429.23877 378.39062Q428.0044 378.39062 427.28564 377.5Q426.4419 376.4375 426.4419 374.01562ZM427.52002 374.01562Q427.52002 376.125 428.02002 376.82812Q428.52002 377.53125 429.23877 377.53125Q429.97314 377.53125 430.45752 376.82812Q430.95752 376.125 430.95752 374.01562Q430.95752 371.89062 430.45752 371.20312Q429.97314 370.5 429.22314 370.5Q428.5044 370.5 428.0669 371.10938Q427.52002 371.89062 427.52002 374.01562ZM433.4419 374.01562Q433.4419 372.48438 433.7544 371.5625Q434.0669 370.625 434.67627 370.125Q435.30127 369.625 436.23877 369.625Q436.92627 369.625 437.4419 369.90625Q437.97314 370.1875 438.3169 370.71875Q438.66064 371.23438 438.84814 371.98438Q439.03564 372.73438 439.03564 374.01562Q439.03564 375.53125 438.72314 376.45312Q438.42627 377.375 437.80127 377.89062Q437.1919 378.39062 436.23877 378.39062Q435.0044 378.39062 434.28564 377.5Q433.4419 376.4375 433.4419 374.01562ZM434.52002 374.01562Q434.52002 376.125 435.02002 376.82812Q435.52002 377.53125 436.23877 377.53125Q436.97314 377.53125 437.45752 376.82812Q437.95752 376.125 437.95752 374.01562Q437.95752 371.89062 437.45752 371.20312Q436.97314 370.5 436.22314 370.5Q435.5044 370.5 435.0669 371.10938Q434.52002 371.89062 434.52002 374.01562ZM440.4419 374.01562Q440.4419 372.48438 440.7544 371.5625Q441.0669 370.625 441.67627 370.125Q442.30127 369.625 443.23877 369.625Q443.92627 369.625 444.4419 369.90625Q444.97314 370.1875 445.3169 370.71875Q445.66064 371.23438 445.84814 371.98438Q446.03564 372.73438 446.03564 374.01562Q446.03564 375.53125 445.72314 376.45312Q445.42627 377.375 444.80127 377.89062Q444.1919 378.39062 443.23877 378.39062Q442.0044 378.39062 441.28564 377.5Q440.4419 376.4375 440.4419 374.01562ZM441.52002 374.01562Q441.52002 376.125 442.02002 376.82812Q442.52002 377.53125 443.23877 377.53125Q443.97314 377.53125 444.45752 376.82812Q444.95752 376.125 444.95752 374.01562Q444.95752 371.89062 444.45752 371.20312Q443.97314 370.5 443.22314 370.5Q442.5044 370.5 442.0669 371.10938Q441.52002 371.89062 441.52002 374.01562ZM447.4419 374.01562Q447.4419 372.48438 447.7544 371.5625Q448.0669 370.625 448.67627 370.125Q449.30127 369.625 450.23877 369.625Q450.92627 369.625 451.4419 369.90625Q451.97314 370.1875 452.3169 370.71875Q452.66064 371.23438 452.84814 371.98438Q453.03564 372.73438 453.03564 374.01562Q453.03564 375.53125 452.72314 376.45312Q452.42627 377.375 451.80127 377.89062Q451.1919 378.39062 450.23877 378.39062Q449.0044 378.39062 448.28564 377.5Q447.4419 376.4375 447.4419 374.01562ZM448.52002 374.01562Q448.52002 376.125 449.02002 376.82812Q449.52002 377.53125 450.23877 377.53125Q450.97314 377.53125 451.45752 376.82812Q451.95752 376.125 451.95752 374.01562Q451.95752 371.89062 451.45752 371.20312Q450.97314 370.5 450.22314 370.5Q449.5044 370.5 449.0669 371.10938Q448.52002 371.89062 448.52002 374.01562Z"
          fill-rule="nonzero"/>
    <path fill="#000000"
          d="M590.28784 375.98438L591.35034 375.84375Q591.5222 376.73438 591.9597 377.14062Q592.3972 377.53125 593.0222 377.53125Q593.7722 377.53125 594.28784 377.01562Q594.80347 376.5 594.80347 375.73438Q594.80347 375.01562 594.3191 374.54688Q593.85034 374.0625 593.11597 374.0625Q592.8191 374.0625 592.36597 374.1875L592.49097 373.25Q592.60034 373.26562 592.66284 373.26562Q593.3347 373.26562 593.86597 372.92188Q594.41284 372.5625 594.41284 371.82812Q594.41284 371.25 594.0222 370.875Q593.6316 370.48438 593.0066 370.48438Q592.3972 370.48438 591.97534 370.875Q591.5691 371.26562 591.4597 372.03125L590.3972 371.84375Q590.5847 370.79688 591.2722 370.21875Q591.9597 369.625 592.97534 369.625Q593.67847 369.625 594.2722 369.9375Q594.86597 370.23438 595.17847 370.75Q595.49097 371.26562 595.49097 371.85938Q595.49097 372.40625 595.1941 372.875Q594.8972 373.32812 594.3191 373.59375Q595.0691 373.76562 595.49097 374.32812Q595.91284 374.875 595.91284 375.71875Q595.91284 376.84375 595.0847 377.625Q594.2722 378.40625 593.0222 378.40625Q591.8972 378.40625 591.1472 377.73438Q590.3972 377.04688 590.28784 375.98438ZM597.28784 374.01562Q597.28784 372.48438 597.60034 371.5625Q597.91284 370.625 598.5222 370.125Q599.1472 369.625 600.0847 369.625Q600.7722 369.625 601.28784 369.90625Q601.8191 370.1875 602.16284 370.71875Q602.5066 371.23438 602.6941 371.98438Q602.8816 372.73438 602.8816 374.01562Q602.8816 375.53125 602.5691 376.45312Q602.2722 377.375 601.6472 377.89062Q601.03784 378.39062 600.0847 378.39062Q598.85034 378.39062 598.1316 377.5Q597.28784 376.4375 597.28784 374.01562ZM598.36597 374.01562Q598.36597 376.125 598.86597 376.82812Q599.36597 377.53125 600.0847 377.53125Q600.8191 377.53125 601.30347 376.82812Q601.80347 376.125 601.80347 374.01562Q601.80347 371.89062 601.30347 371.20312Q600.8191 370.5 600.0691 370.5Q599.35034 370.5 598.91284 371.10938Q598.36597 371.89062 598.36597 374.01562ZM604.28784 374.01562Q604.28784 372.48438 604.60034 371.5625Q604.91284 370.625 605.5222 370.125Q606.1472 369.625 607.0847 369.625Q607.7722 369.625 608.28784 369.90625Q608.8191 370.1875 609.16284 370.71875Q609.5066 371.23438 609.6941 371.98438Q609.8816 372.73438 609.8816 374.01562Q609.8816 375.53125 609.5691 376.45312Q609.2722 377.375 608.6472 377.89062Q608.03784 378.39062 607.0847 378.39062Q605.85034 378.39062 605.1316 377.5Q604.28784 376.4375 604.28784 374.01562ZM605.36597 374.01562Q605.36597 376.125 605.86597 376.82812Q606.36597 377.53125 607.0847 377.53125Q607.8191 377.53125 608.30347 376.82812Q608.80347 376.125 608.80347 374.01562Q608.80347 371.89062 608.30347 371.20312Q607.8191 370.5 607.0691 370.5Q606.35034 370.5 605.91284 371.10938Q605.36597 371.89062 605.36597 374.01562ZM611.28784 374.01562Q611.28784 372.48438 611.60034 371.5625Q611.91284 370.625 612.5222 370.125Q613.1472 369.625 614.0847 369.625Q614.7722 369.625 615.28784 369.90625Q615.8191 370.1875 616.16284 370.71875Q616.5066 371.23438 616.6941 371.98438Q616.8816 372.73438 616.8816 374.01562Q616.8816 375.53125 616.5691 376.45312Q616.2722 377.375 615.6472 377.89062Q615.03784 378.39062 614.0847 378.39062Q612.85034 378.39062 612.1316 377.5Q611.28784 376.4375 611.28784 374.01562ZM612.36597 374.01562Q612.36597 376.125 612.86597 376.82812Q613.36597 377.53125 614.0847 377.53125Q614.8191 377.53125 615.30347 376.82812Q615.80347 376.125 615.80347 374.01562Q615.80347 371.89062 615.30347 371.20312Q614.8191 370.5 614.0691 370.5Q613.35034 370.5 612.91284 371.10938Q612.36597 371.89062 612.36597 374.01562ZM618.28784 374.01562Q618.28784 372.48438 618.60034 371.5625Q618.91284 370.625 619.5222 370.125Q620.1472 369.625 621.0847 369.625Q621.7722 369.625 622.28784 369.90625Q622.8191 370.1875 623.16284 370.71875Q623.5066 371.23438 623.6941 371.98438Q623.8816 372.73438 623.8816 374.01562Q623.8816 375.53125 623.5691 376.45312Q623.2722 377.375 622.6472 377.89062Q622.03784 378.39062 621.0847 378.39062Q619.85034 378.39062 619.1316 377.5Q618.28784 376.4375 618.28784 374.01562ZM619.36597 374.01562Q619.36597 376.125 619.86597 376.82812Q620.36597 377.53125 621.0847 377.53125Q621.8191 377.53125 622.30347 376.82812Q622.80347 376.125 622.80347 374.01562Q622.80347 371.89062 622.30347 371.20312Q621.8191 370.5 621.0691 370.5Q620.35034 370.5 619.91284 371.10938Q619.36597 371.89062 619.36597 374.01562Z"
          fill-rule="nonzero"/>
    <path fill="#4285f4"
          d="M655.2 28.75C655.2 32.06371 652.51373 34.75 649.2 34.75C645.8863 34.75 643.2 32.06371 643.2 28.75C643.2 25.43629 645.8863 22.75 649.2 22.75C652.51373 22.75 655.2 25.43629 655.2 28.75Z"
          fill-rule="nonzero"/>
    <path fill="#1a1a1a"
          d="M667.66876 32.75L666.6219 32.75L666.6219 26.03125Q666.23126 26.390625 665.60626 26.765625Q664.9969 27.125 664.5125 27.296875L664.5125 26.28125Q665.3875 25.859375 666.04376 25.28125Q666.71564 24.6875 666.9969 24.125L667.66876 24.125L667.66876 32.75Z"
          fill-rule="nonzero"/>
    <path fill="#ea4335"
          d="M655.2 52.75C655.2 56.06371 652.51373 58.75 649.2 58.75C645.8863 58.75 643.2 56.06371 643.2 52.75C643.2 49.43629 645.8863 46.75 649.2 46.75C652.51373 46.75 655.2 49.43629 655.2 52.75Z"
          fill-rule="nonzero"/>
    <path fill="#1a1a1a"
          d="M669.2469 55.734375L669.2469 56.75L663.5594 56.75Q663.5594 56.375 663.6844 56.015625Q663.90314 55.4375 664.3719 54.875Q664.85626 54.3125 665.7625 53.578125Q667.16876 52.421875 667.65314 51.75Q668.15314 51.078125 668.15314 50.484375Q668.15314 49.859375 667.7 49.4375Q667.2469 49.0 666.52814 49.0Q665.7625 49.0 665.3094 49.453125Q664.85626 49.90625 664.84064 50.71875L663.7625 50.609375Q663.8719 49.390625 664.59064 48.765625Q665.325 48.125 666.5594 48.125Q667.79376 48.125 668.5125 48.8125Q669.23126 49.5 669.23126 50.515625Q669.23126 51.03125 669.0125 51.53125Q668.8094 52.015625 668.3094 52.578125Q667.825 53.125 666.7 54.078125Q665.7469 54.875 665.46564 55.171875Q665.2 55.453125 665.02814 55.734375L669.2469 55.734375Z"
          fill-rule="nonzero"/>
    <path fill="#fbbc04"
          d="M655.2 76.75C655.2 80.063705 652.51373 82.75 649.2 82.75C645.8863 82.75 643.2 80.063705 643.2 76.75C643.2 73.436295 645.8863 70.75 649.2 70.75C652.51373 70.75 655.2 73.436295 655.2 76.75Z"
          fill-rule="nonzero"/>
    <path fill="#1a1a1a"
          d="M663.7 78.484375L664.7625 78.34375Q664.9344 79.234375 665.3719 79.640625Q665.8094 80.03125 666.4344 80.03125Q667.1844 80.03125 667.7 79.515625Q668.21564 79.0 668.21564 78.234375Q668.21564 77.515625 667.73126 77.046875Q667.2625 76.5625 666.52814 76.5625Q666.23126 76.5625 665.77814 76.6875L665.90314 75.75Q666.0125 75.765625 666.075 75.765625Q666.7469 75.765625 667.27814 75.421875Q667.825 75.0625 667.825 74.328125Q667.825 73.75 667.4344 73.375Q667.04376 72.984375 666.41876 72.984375Q665.8094 72.984375 665.3875 73.375Q664.98126 73.765625 664.8719 74.53125L663.8094 74.34375Q663.9969 73.296875 664.6844 72.71875Q665.3719 72.125 666.3875 72.125Q667.09064 72.125 667.6844 72.4375Q668.27814 72.734375 668.59064 73.25Q668.90314 73.765625 668.90314 74.359375Q668.90314 74.90625 668.60626 75.375Q668.3094 75.828125 667.73126 76.09375Q668.48126 76.265625 668.90314 76.828125Q669.325 77.375 669.325 78.21875Q669.325 79.34375 668.4969 80.125Q667.6844 80.90625 666.4344 80.90625Q665.3094 80.90625 664.5594 80.234375Q663.8094 79.546875 663.7 78.484375Z"
          fill-rule="nonzero"/>
    <path fill="#34a853"
          d="M655.2 100.75C655.2 104.063705 652.51373 106.75 649.2 106.75C645.8863 106.75 643.2 104.063705 643.2 100.75C643.2 97.436295 645.8863 94.75 649.2 94.75C652.51373 94.75 655.2 97.436295 655.2 100.75Z"
          fill-rule="nonzero"/>
    <path fill="#1a1a1a"
          d="M667.075 104.75L667.075 102.6875L663.35626 102.6875L663.35626 101.71875L667.27814 96.15625L668.1375 96.15625L668.1375 101.71875L669.29376 101.71875L669.29376 102.6875L668.1375 102.6875L668.1375 104.75L667.075 104.75ZM667.075 101.71875L667.075 97.859375L664.3875 101.71875L667.075 101.71875Z"
          fill-rule="nonzero"/>
    <path fill="#ff6d01"
          d="M655.2 124.75C655.2 128.0637 652.51373 130.75 649.2 130.75C645.8863 130.75 643.2 128.0637 643.2 124.75C643.2 121.436295 645.8863 118.75 649.2 118.75C652.51373 118.75 655.2 121.436295 655.2 124.75Z"
          fill-rule="nonzero"/>
    <path fill="#1a1a1a"
          d="M663.7 126.5L664.8094 126.40625Q664.9344 127.21875 665.3719 127.625Q665.825 128.03125 666.46564 128.03125Q667.21564 128.03125 667.7469 127.453125Q668.27814 126.875 668.27814 125.9375Q668.27814 125.03125 667.7625 124.515625Q667.2625 123.984375 666.4344 123.984375Q665.9344 123.984375 665.5125 124.21875Q665.10626 124.453125 664.8719 124.8125L663.8875 124.6875L664.71564 120.28125L668.9969 120.28125L668.9969 121.28125L665.5594 121.28125L665.10626 123.59375Q665.8719 123.046875 666.71564 123.046875Q667.84064 123.046875 668.60626 123.828125Q669.3875 124.609375 669.3875 125.84375Q669.3875 127.0 668.71564 127.859375Q667.8875 128.89062 666.46564 128.89062Q665.29376 128.89062 664.54376 128.23438Q663.8094 127.578125 663.7 126.5Z"
          fill-rule="nonzero"/>
    <path fill="#46bdc6"
          d="M655.2 148.75C655.2 152.0637 652.51373 154.75 649.2 154.75C645.8863 154.75 643.2 152.0637 643.2 148.75C643.2 145.4363 645.8863 142.75 649.2 142.75C652.51373 142.75 655.2 145.4363 655.2 148.75Z"
          fill-rule="nonzero"/>
    <path fill="#1a1a1a"
          d="M669.16876 146.26562L668.1219 146.34375Q667.98126 145.71875 667.73126 145.4375Q667.29376 144.98438 666.66876 144.98438Q666.16876 144.98438 665.77814 145.26562Q665.29376 145.64062 664.9969 146.34375Q664.71564 147.03125 664.7 148.3125Q665.075 147.73438 665.6219 147.45312Q666.1844 147.17188 666.79376 147.17188Q667.84064 147.17188 668.575 147.95312Q669.325 148.73438 669.325 149.95312Q669.325 150.76562 668.96564 151.46875Q668.6219 152.15625 668.0125 152.53125Q667.40314 152.89062 666.6375 152.89062Q665.3094 152.89062 664.48126 151.92188Q663.65314 150.95312 663.65314 148.73438Q663.65314 146.23438 664.575 145.10938Q665.3719 144.125 666.73126 144.125Q667.7469 144.125 668.3875 144.70312Q669.04376 145.26562 669.16876 146.26562ZM664.8719 149.96875Q664.8719 150.51562 665.09064 151.01562Q665.325 151.5 665.73126 151.76562Q666.15314 152.03125 666.6219 152.03125Q667.27814 152.03125 667.7625 151.5Q668.2469 150.95312 668.2469 150.03125Q668.2469 149.14062 667.7625 148.625Q667.29376 148.10938 666.575 148.10938Q665.85626 148.10938 665.35626 148.625Q664.8719 149.14062 664.8719 149.96875Z"
          fill-rule="nonzero"/>
</svg>