<svg version="1.1" viewBox="0.0 0.0 705.0 435.0" fill="none" stroke="none" stroke-linecap="square"
     stroke-miterlimit="10" width="705" height="435"
     xmlns="http://www.w3.org/2000/svg">
    <path fill="#ffffff" d="M0 0L705.0 0L705.0 435.0L0 435.0L0 0Z" fill-rule="nonzero"/>
    <path stroke="#333333" stroke-width="1.0" stroke-linecap="butt" d="M80.5 28.5L80.5 361.5" fill-rule="nonzero"/>
    <path stroke="#cccccc" stroke-width="1.0" stroke-linecap="butt" d="M256.5 28.5L256.5 361.5" fill-rule="nonzero"/>
    <path stroke="#cccccc" stroke-width="1.0" stroke-linecap="butt" d="M431.5 28.5L431.5 361.5" fill-rule="nonzero"/>
    <path stroke="#cccccc" stroke-width="1.0" stroke-linecap="butt" d="M607.5 28.5L607.5 361.5" fill-rule="nonzero"/>
    <path stroke="#e6e6e6" stroke-width="1.0" stroke-linecap="butt" d="M168.5 28.5L168.5 361.5" fill-rule="nonzero"/>
    <path stroke="#e6e6e6" stroke-width="1.0" stroke-linecap="butt" d="M344.5 28.5L344.5 361.5" fill-rule="nonzero"/>
    <path stroke="#e6e6e6" stroke-width="1.0" stroke-linecap="butt" d="M519.5 28.5L519.5 361.5" fill-rule="nonzero"/>
    <path stroke="#cccccc" stroke-width="1.0" stroke-linecap="butt" d="M80.5 361.5L617.5 361.5" fill-rule="nonzero"/>
    <path stroke="#cccccc" stroke-width="1.0" stroke-linecap="butt" d="M80.5 278.5L617.5 278.5" fill-rule="nonzero"/>
    <path stroke="#cccccc" stroke-width="1.0" stroke-linecap="butt" d="M80.5 195.5L617.5 195.5" fill-rule="nonzero"/>
    <path stroke="#cccccc" stroke-width="1.0" stroke-linecap="butt" d="M80.5 111.5L617.5 111.5" fill-rule="nonzero"/>
    <path stroke="#cccccc" stroke-width="1.0" stroke-linecap="butt" d="M80.5 28.5L617.5 28.5" fill-rule="nonzero"/>
    <clipPath id="id_0">
        <path d="M80.75 28.75L617.1 28.75L617.1 361.25L80.75 361.25L80.75 28.75Z" clip-rule="nonzero"/>
    </clipPath>
    <path stroke="#4285f4" stroke-width="2.0" stroke-linecap="butt" clip-path="url(#id_0)"
          d="M168.50551 361.25L256.26102 361.25L344.0165 361.25L431.77203 361.25L519.5275 361.25L607.283 361.25"
          fill-rule="nonzero"/>
    <path stroke="#ea4335" stroke-width="2.0" stroke-linecap="butt" clip-path="url(#id_0)"
          d="M168.50551 328.82065L256.26102 310.45715L344.0165 308.55334L431.77203 303.51285L519.5275 299.6364L607.283 285.12842"
          fill-rule="nonzero"/>
    <path stroke="#fbbc04" stroke-width="2.0" stroke-linecap="butt" clip-path="url(#id_0)"
          d="M168.50551 316.16275L256.26102 273.4115L344.0165 261.94565L431.77203 258.09955L519.5275 245.09962L607.283 218.17677"
          fill-rule="nonzero"/>
    <path stroke="#34a853" stroke-width="2.0" stroke-linecap="butt" clip-path="url(#id_0)"
          d="M168.50551 309.9896L256.26102 254.38199L344.0165 231.21472L431.77203 200.30142L519.5275 205.59648L607.283 170.28409"
          fill-rule="nonzero"/>
    <path stroke="#ff6d01" stroke-width="2.0" stroke-linecap="butt" clip-path="url(#id_0)"
          d="M168.50551 302.64038L256.26102 234.61679L344.0165 195.21933L431.77203 159.29051L519.5275 149.72137L607.283 110.81177"
          fill-rule="nonzero"/>
    <path stroke="#46bdc6" stroke-width="2.0" stroke-linecap="butt" clip-path="url(#id_0)"
          d="M168.50551 299.817L256.26102 225.06288L344.0165 179.1222L431.77203 145.59895L519.5275 114.41088L607.283 71.55683"
          fill-rule="nonzero"/>
    <path fill="#4285f4" clip-path="url(#id_0)"
          d="M174.50551 361.25C174.50551 364.56372 171.81921 367.25 168.50551 367.25C165.1918 367.25 162.50551 364.56372 162.50551 361.25C162.50551 357.93628 165.1918 355.25 168.50551 355.25C171.81921 355.25 174.50551 357.93628 174.50551 361.25Z"
          fill-rule="nonzero"/>
    <path fill="#4285f4" clip-path="url(#id_0)"
          d="M262.26102 361.25C262.26102 364.56372 259.5747 367.25 256.26102 367.25C252.9473 367.25 250.26102 364.56372 250.26102 361.25C250.26102 357.93628 252.9473 355.25 256.26102 355.25C259.5747 355.25 262.26102 357.93628 262.26102 361.25Z"
          fill-rule="nonzero"/>
    <path fill="#4285f4" clip-path="url(#id_0)"
          d="M350.0165 361.25C350.0165 364.56372 347.33023 367.25 344.0165 367.25C340.70282 367.25 338.0165 364.56372 338.0165 361.25C338.0165 357.93628 340.70282 355.25 344.0165 355.25C347.33023 355.25 350.0165 357.93628 350.0165 361.25Z"
          fill-rule="nonzero"/>
    <path fill="#4285f4" clip-path="url(#id_0)"
          d="M437.77203 361.25C437.77203 364.56372 435.08572 367.25 431.77203 367.25C428.4583 367.25 425.77203 364.56372 425.77203 361.25C425.77203 357.93628 428.4583 355.25 431.77203 355.25C435.08572 355.25 437.77203 357.93628 437.77203 361.25Z"
          fill-rule="nonzero"/>
    <path fill="#4285f4" clip-path="url(#id_0)"
          d="M525.5275 361.25C525.5275 364.56372 522.84125 367.25 519.5275 367.25C516.2138 367.25 513.5275 364.56372 513.5275 361.25C513.5275 357.93628 516.2138 355.25 519.5275 355.25C522.84125 355.25 525.5275 357.93628 525.5275 361.25Z"
          fill-rule="nonzero"/>
    <path fill="#4285f4" clip-path="url(#id_0)"
          d="M613.283 361.25C613.283 364.56372 610.59674 367.25 607.283 367.25C603.9693 367.25 601.283 364.56372 601.283 361.25C601.283 357.93628 603.9693 355.25 607.283 355.25C610.59674 355.25 613.283 357.93628 613.283 361.25Z"
          fill-rule="nonzero"/>
    <path fill="#ea4335" clip-path="url(#id_0)"
          d="M174.50551 328.82065C174.50551 332.13437 171.81921 334.82065 168.50551 334.82065C165.1918 334.82065 162.50551 332.13437 162.50551 328.82065C162.50551 325.50696 165.1918 322.82065 168.50551 322.82065C171.81921 322.82065 174.50551 325.50696 174.50551 328.82065Z"
          fill-rule="nonzero"/>
    <path fill="#ea4335" clip-path="url(#id_0)"
          d="M262.26102 310.45715C262.26102 313.77084 259.5747 316.45715 256.26102 316.45715C252.9473 316.45715 250.26102 313.77084 250.26102 310.45715C250.26102 307.14343 252.9473 304.45715 256.26102 304.45715C259.5747 304.45715 262.26102 307.14343 262.26102 310.45715Z"
          fill-rule="nonzero"/>
    <path fill="#ea4335" clip-path="url(#id_0)"
          d="M350.0165 308.55334C350.0165 311.86707 347.33023 314.55334 344.0165 314.55334C340.70282 314.55334 338.0165 311.86707 338.0165 308.55334C338.0165 305.23965 340.70282 302.55334 344.0165 302.55334C347.33023 302.55334 350.0165 305.23965 350.0165 308.55334Z"
          fill-rule="nonzero"/>
    <path fill="#ea4335" clip-path="url(#id_0)"
          d="M437.77203 303.51285C437.77203 306.82657 435.08572 309.51285 431.77203 309.51285C428.4583 309.51285 425.77203 306.82657 425.77203 303.51285C425.77203 300.19913 428.4583 297.51285 431.77203 297.51285C435.08572 297.51285 437.77203 300.19913 437.77203 303.51285Z"
          fill-rule="nonzero"/>
    <path fill="#ea4335" clip-path="url(#id_0)"
          d="M525.5275 299.6364C525.5275 302.95013 522.84125 305.6364 519.5275 305.6364C516.2138 305.6364 513.5275 302.95013 513.5275 299.6364C513.5275 296.32272 516.2138 293.6364 519.5275 293.6364C522.84125 293.6364 525.5275 296.32272 525.5275 299.6364Z"
          fill-rule="nonzero"/>
    <path fill="#ea4335" clip-path="url(#id_0)"
          d="M613.283 285.12842C613.283 288.4421 610.59674 291.12842 607.283 291.12842C603.9693 291.12842 601.283 288.4421 601.283 285.12842C601.283 281.8147 603.9693 279.12842 607.283 279.12842C610.59674 279.12842 613.283 281.8147 613.283 285.12842Z"
          fill-rule="nonzero"/>
    <path fill="#fbbc04" clip-path="url(#id_0)"
          d="M174.50551 316.16275C174.50551 319.47647 171.81921 322.16275 168.50551 322.16275C165.1918 322.16275 162.50551 319.47647 162.50551 316.16275C162.50551 312.84906 165.1918 310.16275 168.50551 310.16275C171.81921 310.16275 174.50551 312.84906 174.50551 316.16275Z"
          fill-rule="nonzero"/>
    <path fill="#fbbc04" clip-path="url(#id_0)"
          d="M262.26102 273.4115C262.26102 276.72522 259.5747 279.4115 256.26102 279.4115C252.9473 279.4115 250.26102 276.72522 250.26102 273.4115C250.26102 270.09778 252.9473 267.4115 256.26102 267.4115C259.5747 267.4115 262.26102 270.09778 262.26102 273.4115Z"
          fill-rule="nonzero"/>
    <path fill="#fbbc04" clip-path="url(#id_0)"
          d="M350.0165 261.94565C350.0165 265.25934 347.33023 267.94565 344.0165 267.94565C340.70282 267.94565 338.0165 265.25934 338.0165 261.94565C338.0165 258.63193 340.70282 255.94563 344.0165 255.94563C347.33023 255.94563 350.0165 258.63193 350.0165 261.94565Z"
          fill-rule="nonzero"/>
    <path fill="#fbbc04" clip-path="url(#id_0)"
          d="M437.77203 258.09955C437.77203 261.41324 435.08572 264.09955 431.77203 264.09955C428.4583 264.09955 425.77203 261.41324 425.77203 258.09955C425.77203 254.78583 428.4583 252.09953 431.77203 252.09953C435.08572 252.09953 437.77203 254.78583 437.77203 258.09955Z"
          fill-rule="nonzero"/>
    <path fill="#fbbc04" clip-path="url(#id_0)"
          d="M525.5275 245.09962C525.5275 248.41333 522.84125 251.09962 519.5275 251.09962C516.2138 251.09962 513.5275 248.41333 513.5275 245.09962C513.5275 241.7859 516.2138 239.09962 519.5275 239.09962C522.84125 239.09962 525.5275 241.7859 525.5275 245.09962Z"
          fill-rule="nonzero"/>
    <path fill="#fbbc04" clip-path="url(#id_0)"
          d="M613.283 218.17677C613.283 221.49048 610.59674 224.17677 607.283 224.17677C603.9693 224.17677 601.283 221.49048 601.283 218.17677C601.283 214.86307 603.9693 212.17677 607.283 212.17677C610.59674 212.17677 613.283 214.86307 613.283 218.17677Z"
          fill-rule="nonzero"/>
    <path fill="#34a853" clip-path="url(#id_0)"
          d="M174.50551 309.9896C174.50551 313.30328 171.81921 315.9896 168.50551 315.9896C165.1918 315.9896 162.50551 313.30328 162.50551 309.9896C162.50551 306.67587 165.1918 303.9896 168.50551 303.9896C171.81921 303.9896 174.50551 306.67587 174.50551 309.9896Z"
          fill-rule="nonzero"/>
    <path fill="#34a853" clip-path="url(#id_0)"
          d="M262.26102 254.38199C262.26102 257.6957 259.5747 260.382 256.26102 260.382C252.9473 260.382 250.26102 257.6957 250.26102 254.38199C250.26102 251.06828 252.9473 248.38199 256.26102 248.38199C259.5747 248.38199 262.26102 251.06828 262.26102 254.38199Z"
          fill-rule="nonzero"/>
    <path fill="#34a853" clip-path="url(#id_0)"
          d="M350.0165 231.21472C350.0165 234.52844 347.33023 237.21472 344.0165 237.21472C340.70282 237.21472 338.0165 234.52844 338.0165 231.21472C338.0165 227.90102 340.70282 225.21472 344.0165 225.21472C347.33023 225.21472 350.0165 227.90102 350.0165 231.21472Z"
          fill-rule="nonzero"/>
    <path fill="#34a853" clip-path="url(#id_0)"
          d="M437.77203 200.30142C437.77203 203.61513 435.08572 206.30142 431.77203 206.30142C428.4583 206.30142 425.77203 203.61513 425.77203 200.30142C425.77203 196.9877 428.4583 194.30142 431.77203 194.30142C435.08572 194.30142 437.77203 196.9877 437.77203 200.30142Z"
          fill-rule="nonzero"/>
    <path fill="#34a853" clip-path="url(#id_0)"
          d="M525.5275 205.59648C525.5275 208.91019 522.84125 211.59648 519.5275 211.59648C516.2138 211.59648 513.5275 208.91019 513.5275 205.59648C513.5275 202.28278 516.2138 199.59648 519.5275 199.59648C522.84125 199.59648 525.5275 202.28278 525.5275 205.59648Z"
          fill-rule="nonzero"/>
    <path fill="#34a853" clip-path="url(#id_0)"
          d="M613.283 170.28409C613.283 173.5978 610.59674 176.28409 607.283 176.28409C603.9693 176.28409 601.283 173.5978 601.283 170.28409C601.283 166.97037 603.9693 164.28409 607.283 164.28409C610.59674 164.28409 613.283 166.97037 613.283 170.28409Z"
          fill-rule="nonzero"/>
    <path fill="#ff6d01" clip-path="url(#id_0)"
          d="M174.50551 302.64038C174.50551 305.9541 171.81921 308.64038 168.50551 308.64038C165.1918 308.64038 162.50551 305.9541 162.50551 302.64038C162.50551 299.32666 165.1918 296.64038 168.50551 296.64038C171.81921 296.64038 174.50551 299.32666 174.50551 302.64038Z"
          fill-rule="nonzero"/>
    <path fill="#ff6d01" clip-path="url(#id_0)"
          d="M262.26102 234.61679C262.26102 237.9305 259.5747 240.61679 256.26102 240.61679C252.9473 240.61679 250.26102 237.9305 250.26102 234.61679C250.26102 231.30309 252.9473 228.61679 256.26102 228.61679C259.5747 228.61679 262.26102 231.30309 262.26102 234.61679Z"
          fill-rule="nonzero"/>
    <path fill="#ff6d01" clip-path="url(#id_0)"
          d="M350.0165 195.21933C350.0165 198.53304 347.33023 201.21933 344.0165 201.21933C340.70282 201.21933 338.0165 198.53304 338.0165 195.21933C338.0165 191.90562 340.70282 189.21933 344.0165 189.21933C347.33023 189.21933 350.0165 191.90562 350.0165 195.21933Z"
          fill-rule="nonzero"/>
    <path fill="#ff6d01" clip-path="url(#id_0)"
          d="M437.77203 159.29051C437.77203 162.60422 435.08572 165.29051 431.77203 165.29051C428.4583 165.29051 425.77203 162.60422 425.77203 159.29051C425.77203 155.9768 428.4583 153.29051 431.77203 153.29051C435.08572 153.29051 437.77203 155.9768 437.77203 159.29051Z"
          fill-rule="nonzero"/>
    <path fill="#ff6d01" clip-path="url(#id_0)"
          d="M525.5275 149.72137C525.5275 153.03508 522.84125 155.72137 519.5275 155.72137C516.2138 155.72137 513.5275 153.03508 513.5275 149.72137C513.5275 146.40767 516.2138 143.72137 519.5275 143.72137C522.84125 143.72137 525.5275 146.40767 525.5275 149.72137Z"
          fill-rule="nonzero"/>
    <path fill="#ff6d01" clip-path="url(#id_0)"
          d="M613.283 110.81177C613.283 114.12547 610.59674 116.81177 607.283 116.81177C603.9693 116.81177 601.283 114.12547 601.283 110.81177C601.283 107.498055 603.9693 104.81177 607.283 104.81177C610.59674 104.81177 613.283 107.498055 613.283 110.81177Z"
          fill-rule="nonzero"/>
    <path fill="#46bdc6" clip-path="url(#id_0)"
          d="M174.50551 299.817C174.50551 303.13068 171.81921 305.817 168.50551 305.817C165.1918 305.817 162.50551 303.13068 162.50551 299.817C162.50551 296.50327 165.1918 293.817 168.50551 293.817C171.81921 293.817 174.50551 296.50327 174.50551 299.817Z"
          fill-rule="nonzero"/>
    <path fill="#46bdc6" clip-path="url(#id_0)"
          d="M262.26102 225.06288C262.26102 228.37659 259.5747 231.06288 256.26102 231.06288C252.9473 231.06288 250.26102 228.37659 250.26102 225.06288C250.26102 221.74918 252.9473 219.06288 256.26102 219.06288C259.5747 219.06288 262.26102 221.74918 262.26102 225.06288Z"
          fill-rule="nonzero"/>
    <path fill="#46bdc6" clip-path="url(#id_0)"
          d="M350.0165 179.1222C350.0165 182.4359 347.33023 185.1222 344.0165 185.1222C340.70282 185.1222 338.0165 182.4359 338.0165 179.1222C338.0165 175.80849 340.70282 173.1222 344.0165 173.1222C347.33023 173.1222 350.0165 175.80849 350.0165 179.1222Z"
          fill-rule="nonzero"/>
    <path fill="#46bdc6" clip-path="url(#id_0)"
          d="M437.77203 145.59895C437.77203 148.91267 435.08572 151.59895 431.77203 151.59895C428.4583 151.59895 425.77203 148.91267 425.77203 145.59895C425.77203 142.28525 428.4583 139.59895 431.77203 139.59895C435.08572 139.59895 437.77203 142.28525 437.77203 145.59895Z"
          fill-rule="nonzero"/>
    <path fill="#46bdc6" clip-path="url(#id_0)"
          d="M525.5275 114.41088C525.5275 117.724594 522.84125 120.41088 519.5275 120.41088C516.2138 120.41088 513.5275 117.724594 513.5275 114.41088C513.5275 111.097176 516.2138 108.41088 519.5275 108.41088C522.84125 108.41088 525.5275 111.097176 525.5275 114.41088Z"
          fill-rule="nonzero"/>
    <path fill="#46bdc6" clip-path="url(#id_0)"
          d="M613.283 71.55683C613.283 74.870544 610.59674 77.55683 607.283 77.55683C603.9693 77.55683 601.283 74.870544 601.283 71.55683C601.283 68.243126 603.9693 65.55683 607.283 65.55683C610.59674 65.55683 613.283 68.243126 613.283 71.55683Z"
          fill-rule="nonzero"/>
    <path fill="#000000"
          d="M306.8 410.25L303.47186 401.65625L304.70624 401.65625L306.9406 407.90625Q307.20624 408.65625 307.39374 409.3125Q307.59686 408.60938 307.8625 407.90625L310.175 401.65625L311.33124 401.65625L307.97186 410.25L306.8 410.25ZM316.47186 408.25L317.5656 408.375Q317.3156 409.32812 316.6125 409.85938Q315.90936 410.39062 314.83124 410.39062Q313.47186 410.39062 312.65936 409.54688Q311.8625 408.70312 311.8625 407.1875Q311.8625 405.625 312.675 404.76562Q313.4875 403.89062 314.76874 403.89062Q316.01874 403.89062 316.8 404.73438Q317.59686 405.57812 317.59686 407.125Q317.59686 407.21875 317.59686 407.40625L312.95624 407.40625Q313.01874 408.4375 313.53436 408.98438Q314.05 409.51562 314.83124 409.51562Q315.40936 409.51562 315.8156 409.21875Q316.2375 408.90625 316.47186 408.25ZM313.01874 406.54688L316.4875 406.54688Q316.425 405.75 316.09686 405.35938Q315.58124 404.75 314.78436 404.75Q314.05 404.75 313.55 405.23438Q313.0656 405.71875 313.01874 406.54688ZM319.20624 410.25L319.20624 404.03125L320.15936 404.03125L320.15936 404.96875Q320.51874 404.3125 320.8156 404.10938Q321.1281 403.89062 321.5031 403.89062Q322.03436 403.89062 322.58124 404.21875L322.22186 405.20312Q321.83124 404.96875 321.45624 404.96875Q321.09686 404.96875 320.8156 405.1875Q320.55 405.39062 320.4406 405.76562Q320.2531 406.32812 320.2531 406.98438L320.2531 410.25L319.20624 410.25ZM325.51874 409.3125L325.675 410.23438Q325.22186 410.32812 324.8781 410.32812Q324.3 410.32812 323.9875 410.15625Q323.675 409.96875 323.53436 409.67188Q323.40936 409.375 323.40936 408.42188L323.40936 404.84375L322.64374 404.84375L322.64374 404.03125L323.40936 404.03125L323.40936 402.48438L324.45624 401.85938L324.45624 404.03125L325.51874 404.03125L325.51874 404.84375L324.45624 404.84375L324.45624 408.48438Q324.45624 408.9375 324.5031 409.0625Q324.5656 409.1875 324.6906 409.26562Q324.8156 409.34375 325.05 409.34375Q325.2375 409.34375 325.51874 409.3125ZM326.22186 402.875L326.22186 401.65625L327.28436 401.65625L327.28436 402.875L326.22186 402.875ZM326.22186 410.25L326.22186 404.03125L327.28436 404.03125L327.28436 410.25L326.22186 410.25ZM333.28436 407.96875L334.3156 408.10938Q334.14374 409.17188 333.4406 409.78125Q332.7375 410.39062 331.72186 410.39062Q330.4406 410.39062 329.65936 409.5625Q328.89374 408.71875 328.89374 407.15625Q328.89374 406.15625 329.22186 405.40625Q329.5656 404.64062 330.2375 404.26562Q330.925 403.89062 331.7375 403.89062Q332.7375 403.89062 333.3781 404.40625Q334.03436 404.90625 334.22186 405.85938L333.1906 406.01562Q333.05 405.39062 332.675 405.07812Q332.3 404.75 331.76874 404.75Q330.97186 404.75 330.47186 405.32812Q329.97186 405.89062 329.97186 407.125Q329.97186 408.39062 330.45624 408.95312Q330.9406 409.51562 331.70624 409.51562Q332.33124 409.51562 332.7375 409.14062Q333.15936 408.76562 333.28436 407.96875ZM339.47186 408.25L340.5656 408.375Q340.3156 409.32812 339.6125 409.85938Q338.90936 410.39062 337.83124 410.39062Q336.47186 410.39062 335.65936 409.54688Q334.8625 408.70312 334.8625 407.1875Q334.8625 405.625 335.675 404.76562Q336.4875 403.89062 337.76874 403.89062Q339.01874 403.89062 339.8 404.73438Q340.59686 405.57812 340.59686 407.125Q340.59686 407.21875 340.59686 407.40625L335.95624 407.40625Q336.01874 408.4375 336.53436 408.98438Q337.05 409.51562 337.83124 409.51562Q338.40936 409.51562 338.8156 409.21875Q339.2375 408.90625 339.47186 408.25ZM336.01874 406.54688L339.4875 406.54688Q339.425 405.75 339.09686 405.35938Q338.58124 404.75 337.78436 404.75Q337.05 404.75 336.55 405.23438Q336.0656 405.71875 336.01874 406.54688ZM341.8 408.39062L342.83124 408.23438Q342.925 408.85938 343.3156 409.1875Q343.72186 409.51562 344.45624 409.51562Q345.175 409.51562 345.51874 409.23438Q345.8781 408.9375 345.8781 408.53125Q345.8781 408.17188 345.5656 407.96875Q345.34686 407.82812 344.4875 407.60938Q343.33124 407.3125 342.8781 407.10938Q342.4406 406.89062 342.20624 406.51562Q341.97186 406.14062 341.97186 405.67188Q341.97186 405.26562 342.15936 404.90625Q342.34686 404.54688 342.675 404.3125Q342.925 404.14062 343.34686 404.01562Q343.76874 403.89062 344.26874 403.89062Q344.9875 403.89062 345.53436 404.10938Q346.09686 404.3125 346.3625 404.67188Q346.6281 405.03125 346.72186 405.625L345.6906 405.76562Q345.6281 405.29688 345.28436 405.03125Q344.95624 404.75 344.33124 404.75Q343.6125 404.75 343.3 405.0Q342.9875 405.23438 342.9875 405.5625Q342.9875 405.76562 343.1125 405.92188Q343.2531 406.09375 343.51874 406.20312Q343.675 406.26562 344.45624 406.46875Q345.58124 406.78125 346.01874 406.96875Q346.45624 407.15625 346.70624 407.51562Q346.95624 407.875 346.95624 408.42188Q346.95624 408.95312 346.64374 409.42188Q346.34686 409.875 345.76874 410.14062Q345.1906 410.39062 344.45624 410.39062Q343.2375 410.39062 342.59686 409.89062Q341.97186 409.375 341.8 408.39062ZM351.34686 410.25L351.34686 401.65625L352.5031 401.65625L357.01874 408.40625L357.01874 401.65625L358.1125 401.65625L358.1125 410.25L356.9406 410.25L352.425 403.5L352.425 410.25L351.34686 410.25ZM364.3 410.25L364.3 409.32812Q363.5656 410.39062 362.3156 410.39062Q361.76874 410.39062 361.28436 410.1875Q360.8156 409.96875 360.58124 409.65625Q360.34686 409.32812 360.2531 408.85938Q360.1906 408.5625 360.1906 407.875L360.1906 404.03125L361.2531 404.03125L361.2531 407.48438Q361.2531 408.29688 361.3156 408.59375Q361.40936 409.0 361.72186 409.25Q362.05 409.48438 362.53436 409.48438Q363.0031 409.48438 363.40936 409.25Q363.83124 409.0 364.0031 408.57812Q364.1906 408.15625 364.1906 407.35938L364.1906 404.03125L365.2375 404.03125L365.2375 410.25L364.3 410.25ZM367.22186 410.25L367.22186 404.03125L368.15936 404.03125L368.15936 404.90625Q368.45624 404.4375 368.9406 404.17188Q369.425 403.89062 370.05 403.89062Q370.7375 403.89062 371.175 404.17188Q371.6281 404.45312 371.8 404.96875Q372.55 403.89062 373.72186 403.89062Q374.65936 403.89062 375.14374 404.40625Q375.64374 404.90625 375.64374 405.98438L375.64374 410.25L374.59686 410.25L374.59686 406.32812Q374.59686 405.70312 374.4875 405.42188Q374.39374 405.14062 374.1281 404.96875Q373.8625 404.79688 373.4875 404.79688Q372.83124 404.79688 372.39374 405.23438Q371.97186 405.67188 371.97186 406.64062L371.97186 410.25L370.90936 410.25L370.90936 406.20312Q370.90936 405.5 370.64374 405.15625Q370.39374 404.79688 369.8156 404.79688Q369.3625 404.79688 368.9875 405.03125Q368.6125 405.26562 368.4406 405.71875Q368.26874 406.17188 368.26874 407.01562L368.26874 410.25L367.22186 410.25ZM378.1906 410.25L377.20624 410.25L377.20624 401.65625L378.26874 401.65625L378.26874 404.71875Q378.9406 403.89062 379.97186 403.89062Q380.55 403.89062 381.05 404.125Q381.5656 404.34375 381.89374 404.76562Q382.2375 405.1875 382.425 405.78125Q382.6125 406.375 382.6125 407.04688Q382.6125 408.64062 381.8156 409.51562Q381.01874 410.39062 379.925 410.39062Q378.8156 410.39062 378.1906 409.46875L378.1906 410.25ZM378.175 407.09375Q378.175 408.20312 378.4875 408.70312Q378.9875 409.51562 379.83124 409.51562Q380.51874 409.51562 381.01874 408.92188Q381.53436 408.32812 381.53436 407.125Q381.53436 405.90625 381.05 405.32812Q380.5656 404.75 379.8781 404.75Q379.1906 404.75 378.675 405.35938Q378.175 405.95312 378.175 407.09375ZM388.47186 408.25L389.5656 408.375Q389.3156 409.32812 388.6125 409.85938Q387.90936 410.39062 386.83124 410.39062Q385.47186 410.39062 384.65936 409.54688Q383.8625 408.70312 383.8625 407.1875Q383.8625 405.625 384.675 404.76562Q385.4875 403.89062 386.76874 403.89062Q388.01874 403.89062 388.8 404.73438Q389.59686 405.57812 389.59686 407.125Q389.59686 407.21875 389.59686 407.40625L384.95624 407.40625Q385.01874 408.4375 385.53436 408.98438Q386.05 409.51562 386.83124 409.51562Q387.40936 409.51562 387.8156 409.21875Q388.2375 408.90625 388.47186 408.25ZM385.01874 406.54688L388.4875 406.54688Q388.425 405.75 388.09686 405.35938Q387.58124 404.75 386.78436 404.75Q386.05 404.75 385.55 405.23438Q385.0656 405.71875 385.01874 406.54688ZM391.20624 410.25L391.20624 404.03125L392.15936 404.03125L392.15936 404.96875Q392.51874 404.3125 392.8156 404.10938Q393.1281 403.89062 393.5031 403.89062Q394.03436 403.89062 394.58124 404.21875L394.22186 405.20312Q393.83124 404.96875 393.45624 404.96875Q393.09686 404.96875 392.8156 405.1875Q392.55 405.39062 392.4406 405.76562Q392.2531 406.32812 392.2531 406.98438L392.2531 410.25L391.20624 410.25Z"
          fill-rule="nonzero"/>
    <path fill="#000000"
          d="M29.984375 225.95312L29.890625 224.89062Q30.546875 224.8125 30.953125 224.53125Q31.359375 224.25 31.625 223.67188Q31.875 223.07812 31.875 222.34375Q31.875 221.70312 31.6875 221.20312Q31.484375 220.70312 31.15625 220.46875Q30.8125 220.21875 30.421875 220.21875Q30.015625 220.21875 29.71875 220.45312Q29.40625 220.6875 29.203125 221.21875Q29.0625 221.57812 28.78125 222.76562Q28.5 223.9375 28.25 224.40625Q27.921875 225.03125 27.453125 225.32812Q26.96875 225.625 26.375 225.625Q25.734375 225.625 25.171875 225.26562Q24.59375 224.89062 24.3125 224.1875Q24.015625 223.46875 24.015625 222.60938Q24.015625 221.65625 24.328125 220.92188Q24.625 220.1875 25.234375 219.79688Q25.828125 219.40625 26.578125 219.375L26.65625 220.46875Q25.84375 220.5625 25.4375 221.07812Q25.015625 221.57812 25.015625 222.5625Q25.015625 223.59375 25.390625 224.0625Q25.765625 224.53125 26.296875 224.53125Q26.765625 224.53125 27.0625 224.20312Q27.359375 223.875 27.671875 222.5Q27.984375 221.10938 28.21875 220.59375Q28.578125 219.84375 29.109375 219.48438Q29.625 219.125 30.328125 219.125Q31.015625 219.125 31.625 219.51562Q32.21875 219.90625 32.5625 220.64062Q32.890625 221.375 32.890625 222.29688Q32.890625 223.46875 32.5625 224.26562Q32.21875 225.04688 31.53125 225.5Q30.84375 225.9375 29.984375 225.95312ZM35.140625 217.70312L26.53125 217.70312L26.53125 216.75L27.328125 216.75Q26.859375 216.40625 26.625 215.98438Q26.390625 215.54688 26.390625 214.9375Q26.390625 214.14062 26.796875 213.53125Q27.203125 212.92188 27.953125 212.625Q28.703125 212.3125 29.59375 212.3125Q30.546875 212.3125 31.3125 212.65625Q32.078125 212.98438 32.484375 213.64062Q32.890625 214.29688 32.890625 215.01562Q32.890625 215.54688 32.671875 215.96875Q32.4375 216.39062 32.109375 216.65625L35.140625 216.65625L35.140625 217.70312ZM29.671875 216.75Q30.875 216.75 31.453125 216.26562Q32.015625 215.78125 32.015625 215.09375Q32.015625 214.39062 31.421875 213.89062Q30.828125 213.39062 29.578125 213.39062Q28.390625 213.39062 27.8125 213.875Q27.21875 214.35938 27.21875 215.04688Q27.21875 215.71875 27.84375 216.23438Q28.46875 216.75 29.671875 216.75ZM30.75 206.45312L30.875 205.35938Q31.828125 205.60938 32.359375 206.3125Q32.890625 207.01562 32.890625 208.09375Q32.890625 209.45312 32.046875 210.26562Q31.203125 211.0625 29.6875 211.0625Q28.125 211.0625 27.265625 210.25Q26.390625 209.4375 26.390625 208.15625Q26.390625 206.90625 27.234375 206.125Q28.078125 205.32812 29.625 205.32812Q29.71875 205.32812 29.90625 205.32812L29.90625 209.96875Q30.9375 209.90625 31.484375 209.39062Q32.015625 208.875 32.015625 208.09375Q32.015625 207.51562 31.71875 207.10938Q31.40625 206.6875 30.75 206.45312ZM29.046875 209.90625L29.046875 206.4375Q28.25 206.5 27.859375 206.82812Q27.25 207.34375 27.25 208.14062Q27.25 208.875 27.734375 209.375Q28.21875 209.85938 29.046875 209.90625ZM30.75 199.45312L30.875 198.35938Q31.828125 198.60938 32.359375 199.3125Q32.890625 200.01562 32.890625 201.09375Q32.890625 202.45312 32.046875 203.26562Q31.203125 204.0625 29.6875 204.0625Q28.125 204.0625 27.265625 203.25Q26.390625 202.4375 26.390625 201.15625Q26.390625 199.90625 27.234375 199.125Q28.078125 198.32812 29.625 198.32812Q29.71875 198.32812 29.90625 198.32812L29.90625 202.96875Q30.9375 202.90625 31.484375 202.39062Q32.015625 201.875 32.015625 201.09375Q32.015625 200.51562 31.71875 200.10938Q31.40625 199.6875 30.75 199.45312ZM29.046875 202.90625L29.046875 199.4375Q28.25 199.5 27.859375 199.82812Q27.25 200.34375 27.25 201.14062Q27.25 201.875 27.734375 202.375Q28.21875 202.85938 29.046875 202.90625ZM32.75 192.67188L31.96875 192.67188Q32.890625 193.26562 32.890625 194.40625Q32.890625 195.15625 32.484375 195.78125Q32.0625 196.40625 31.328125 196.75Q30.59375 197.09375 29.640625 197.09375Q28.71875 197.09375 27.953125 196.78125Q27.1875 196.46875 26.796875 195.84375Q26.390625 195.21875 26.390625 194.45312Q26.390625 193.89062 26.625 193.45312Q26.859375 193.01562 27.234375 192.73438L24.15625 192.73438L24.15625 191.6875L32.75 191.6875L32.75 192.67188ZM29.640625 196.0Q30.84375 196.0 31.4375 195.5Q32.015625 195.0 32.015625 194.3125Q32.015625 193.625 31.453125 193.14062Q30.890625 192.65625 29.734375 192.65625Q28.453125 192.65625 27.859375 193.15625Q27.265625 193.64062 27.265625 194.35938Q27.265625 195.0625 27.84375 195.53125Q28.40625 196.0 29.640625 196.0ZM32.75 185.625L31.828125 185.625Q32.890625 186.35938 32.890625 187.60938Q32.890625 188.15625 32.6875 188.64062Q32.46875 189.10938 32.15625 189.34375Q31.828125 189.57812 31.359375 189.67188Q31.0625 189.73438 30.375 189.73438L26.53125 189.73438L26.53125 188.67188L29.984375 188.67188Q30.796875 188.67188 31.09375 188.60938Q31.5 188.51562 31.75 188.20312Q31.984375 187.875 31.984375 187.39062Q31.984375 186.92188 31.75 186.51562Q31.5 186.09375 31.078125 185.92188Q30.65625 185.73438 29.859375 185.73438L26.53125 185.73438L26.53125 184.6875L32.75 184.6875L32.75 185.625ZM35.140625 182.70312L26.53125 182.70312L26.53125 181.75L27.328125 181.75Q26.859375 181.40625 26.625 180.98438Q26.390625 180.54688 26.390625 179.9375Q26.390625 179.14062 26.796875 178.53125Q27.203125 177.92188 27.953125 177.625Q28.703125 177.3125 29.59375 177.3125Q30.546875 177.3125 31.3125 177.65625Q32.078125 177.98438 32.484375 178.64062Q32.890625 179.29688 32.890625 180.01562Q32.890625 180.54688 32.671875 180.96875Q32.4375 181.39062 32.109375 181.65625L35.140625 181.65625L35.140625 182.70312ZM29.671875 181.75Q30.875 181.75 31.453125 181.26562Q32.015625 180.78125 32.015625 180.09375Q32.015625 179.39062 31.421875 178.89062Q30.828125 178.39062 29.578125 178.39062Q28.390625 178.39062 27.8125 178.875Q27.21875 179.35938 27.21875 180.04688Q27.21875 180.71875 27.84375 181.23438Q28.46875 181.75 29.671875 181.75Z"
          fill-rule="nonzero"/>
    <path fill="#000000"
          d="M62.21875 365.25L61.171875 365.25L61.171875 358.53125Q60.78125 358.89062 60.15625 359.26562Q59.546875 359.625 59.0625 359.79688L59.0625 358.78125Q59.9375 358.35938 60.59375 357.78125Q61.265625 357.1875 61.546875 356.625L62.21875 356.625L62.21875 365.25ZM65.84375 365.25L65.84375 364.04688L67.046875 364.04688L67.046875 365.25L65.84375 365.25ZM68.25 361.01562Q68.25 359.48438 68.5625 358.5625Q68.875 357.625 69.484375 357.125Q70.109375 356.625 71.046875 356.625Q71.734375 356.625 72.25 356.90625Q72.78125 357.1875 73.125 357.71875Q73.46875 358.23438 73.65625 358.98438Q73.84375 359.73438 73.84375 361.01562Q73.84375 362.53125 73.53125 363.45312Q73.234375 364.375 72.609375 364.89062Q72.0 365.39062 71.046875 365.39062Q69.8125 365.39062 69.09375 364.5Q68.25 363.4375 68.25 361.01562ZM69.328125 361.01562Q69.328125 363.125 69.828125 363.82812Q70.328125 364.53125 71.046875 364.53125Q71.78125 364.53125 72.265625 363.82812Q72.765625 363.125 72.765625 361.01562Q72.765625 358.89062 72.265625 358.20312Q71.78125 357.5 71.03125 357.5Q70.3125 357.5 69.875 358.10938Q69.328125 358.89062 69.328125 361.01562Z"
          fill-rule="nonzero"/>
    <path fill="#000000"
          d="M63.796875 281.10938L63.796875 282.125L58.109375 282.125Q58.109375 281.75 58.234375 281.39062Q58.453125 280.8125 58.921875 280.25Q59.40625 279.6875 60.3125 278.95312Q61.71875 277.79688 62.203125 277.125Q62.703125 276.45312 62.703125 275.85938Q62.703125 275.23438 62.25 274.8125Q61.796875 274.375 61.078125 274.375Q60.3125 274.375 59.859375 274.82812Q59.40625 275.28125 59.390625 276.09375L58.3125 275.98438Q58.421875 274.76562 59.140625 274.14062Q59.875 273.5 61.109375 273.5Q62.34375 273.5 63.0625 274.1875Q63.78125 274.875 63.78125 275.89062Q63.78125 276.40625 63.5625 276.90625Q63.359375 277.39062 62.859375 277.95312Q62.375 278.5 61.25 279.45312Q60.296875 280.25 60.015625 280.54688Q59.75 280.82812 59.578125 281.10938L63.796875 281.10938ZM65.84375 282.125L65.84375 280.92188L67.046875 280.92188L67.046875 282.125L65.84375 282.125ZM68.25 277.89062Q68.25 276.35938 68.5625 275.4375Q68.875 274.5 69.484375 274.0Q70.109375 273.5 71.046875 273.5Q71.734375 273.5 72.25 273.78125Q72.78125 274.0625 73.125 274.59375Q73.46875 275.10938 73.65625 275.85938Q73.84375 276.60938 73.84375 277.89062Q73.84375 279.40625 73.53125 280.32812Q73.234375 281.25 72.609375 281.76562Q72.0 282.26562 71.046875 282.26562Q69.8125 282.26562 69.09375 281.375Q68.25 280.3125 68.25 277.89062ZM69.328125 277.89062Q69.328125 280.0 69.828125 280.70312Q70.328125 281.40625 71.046875 281.40625Q71.78125 281.40625 72.265625 280.70312Q72.765625 280.0 72.765625 277.89062Q72.765625 275.76562 72.265625 275.07812Q71.78125 274.375 71.03125 274.375Q70.3125 274.375 69.875 274.98438Q69.328125 275.76562 69.328125 277.89062Z"
          fill-rule="nonzero"/>
    <path fill="#000000"
          d="M58.25 196.73438L59.3125 196.59375Q59.484375 197.48438 59.921875 197.89062Q60.359375 198.28125 60.984375 198.28125Q61.734375 198.28125 62.25 197.76562Q62.765625 197.25 62.765625 196.48438Q62.765625 195.76562 62.28125 195.29688Q61.8125 194.8125 61.078125 194.8125Q60.78125 194.8125 60.328125 194.9375L60.453125 194.0Q60.5625 194.01562 60.625 194.01562Q61.296875 194.01562 61.828125 193.67188Q62.375 193.3125 62.375 192.57812Q62.375 192.0 61.984375 191.625Q61.59375 191.23438 60.96875 191.23438Q60.359375 191.23438 59.9375 191.625Q59.53125 192.01562 59.421875 192.78125L58.359375 192.59375Q58.546875 191.54688 59.234375 190.96875Q59.921875 190.375 60.9375 190.375Q61.640625 190.375 62.234375 190.6875Q62.828125 190.98438 63.140625 191.5Q63.453125 192.01562 63.453125 192.60938Q63.453125 193.15625 63.15625 193.625Q62.859375 194.07812 62.28125 194.34375Q63.03125 194.51562 63.453125 195.07812Q63.875 195.625 63.875 196.46875Q63.875 197.59375 63.046875 198.375Q62.234375 199.15625 60.984375 199.15625Q59.859375 199.15625 59.109375 198.48438Q58.359375 197.79688 58.25 196.73438ZM65.84375 199.0L65.84375 197.79688L67.046875 197.79688L67.046875 199.0L65.84375 199.0ZM68.25 194.76562Q68.25 193.23438 68.5625 192.3125Q68.875 191.375 69.484375 190.875Q70.109375 190.375 71.046875 190.375Q71.734375 190.375 72.25 190.65625Q72.78125 190.9375 73.125 191.46875Q73.46875 191.98438 73.65625 192.73438Q73.84375 193.48438 73.84375 194.76562Q73.84375 196.28125 73.53125 197.20312Q73.234375 198.125 72.609375 198.64062Q72.0 199.14062 71.046875 199.14062Q69.8125 199.14062 69.09375 198.25Q68.25 197.1875 68.25 194.76562ZM69.328125 194.76562Q69.328125 196.875 69.828125 197.57812Q70.328125 198.28125 71.046875 198.28125Q71.78125 198.28125 72.265625 197.57812Q72.765625 196.875 72.765625 194.76562Q72.765625 192.64062 72.265625 191.95312Q71.78125 191.25 71.03125 191.25Q70.3125 191.25 69.875 191.85938Q69.328125 192.64062 69.328125 194.76562Z"
          fill-rule="nonzero"/>
    <path fill="#000000"
          d="M61.625 115.875L61.625 113.8125L57.90625 113.8125L57.90625 112.84375L61.828125 107.28125L62.6875 107.28125L62.6875 112.84375L63.84375 112.84375L63.84375 113.8125L62.6875 113.8125L62.6875 115.875L61.625 115.875ZM61.625 112.84375L61.625 108.984375L58.9375 112.84375L61.625 112.84375ZM65.84375 115.875L65.84375 114.671875L67.046875 114.671875L67.046875 115.875L65.84375 115.875ZM68.25 111.640625Q68.25 110.109375 68.5625 109.1875Q68.875 108.25 69.484375 107.75Q70.109375 107.25 71.046875 107.25Q71.734375 107.25 72.25 107.53125Q72.78125 107.8125 73.125 108.34375Q73.46875 108.859375 73.65625 109.609375Q73.84375 110.359375 73.84375 111.640625Q73.84375 113.15625 73.53125 114.078125Q73.234375 115.0 72.609375 115.515625Q72.0 116.015625 71.046875 116.015625Q69.8125 116.015625 69.09375 115.125Q68.25 114.0625 68.25 111.640625ZM69.328125 111.640625Q69.328125 113.75 69.828125 114.453125Q70.328125 115.15625 71.046875 115.15625Q71.78125 115.15625 72.265625 114.453125Q72.765625 113.75 72.765625 111.640625Q72.765625 109.515625 72.265625 108.828125Q71.78125 108.125 71.03125 108.125Q70.3125 108.125 69.875 108.734375Q69.328125 109.515625 69.328125 111.640625Z"
          fill-rule="nonzero"/>
    <path fill="#000000"
          d="M58.25 30.5L59.359375 30.40625Q59.484375 31.21875 59.921875 31.625Q60.375 32.03125 61.015625 32.03125Q61.765625 32.03125 62.296875 31.453125Q62.828125 30.875 62.828125 29.9375Q62.828125 29.03125 62.3125 28.515625Q61.8125 27.984375 60.984375 27.984375Q60.484375 27.984375 60.0625 28.21875Q59.65625 28.453125 59.421875 28.8125L58.4375 28.6875L59.265625 24.28125L63.546875 24.28125L63.546875 25.28125L60.109375 25.28125L59.65625 27.59375Q60.421875 27.046875 61.265625 27.046875Q62.390625 27.046875 63.15625 27.828125Q63.9375 28.609375 63.9375 29.84375Q63.9375 31.0 63.265625 31.859375Q62.4375 32.890625 61.015625 32.890625Q59.84375 32.890625 59.09375 32.234375Q58.359375 31.578125 58.25 30.5ZM65.84375 32.75L65.84375 31.546875L67.046875 31.546875L67.046875 32.75L65.84375 32.75ZM68.25 28.515625Q68.25 26.984375 68.5625 26.0625Q68.875 25.125 69.484375 24.625Q70.109375 24.125 71.046875 24.125Q71.734375 24.125 72.25 24.40625Q72.78125 24.6875 73.125 25.21875Q73.46875 25.734375 73.65625 26.484375Q73.84375 27.234375 73.84375 28.515625Q73.84375 30.03125 73.53125 30.953125Q73.234375 31.875 72.609375 32.390625Q72.0 32.890625 71.046875 32.890625Q69.8125 32.890625 69.09375 32.0Q68.25 30.9375 68.25 28.515625ZM69.328125 28.515625Q69.328125 30.625 69.828125 31.328125Q70.328125 32.03125 71.046875 32.03125Q71.78125 32.03125 72.265625 31.328125Q72.765625 30.625 72.765625 28.515625Q72.765625 26.390625 72.265625 25.703125Q71.78125 25.0 71.03125 25.0Q70.3125 25.0 69.875 25.609375Q69.328125 26.390625 69.328125 28.515625Z"
          fill-rule="nonzero"/>
    <path fill="#000000"
          d="M77.75 374.01562Q77.75 372.48438 78.0625 371.5625Q78.375 370.625 78.984375 370.125Q79.609375 369.625 80.546875 369.625Q81.234375 369.625 81.75 369.90625Q82.28125 370.1875 82.625 370.71875Q82.96875 371.23438 83.15625 371.98438Q83.34375 372.73438 83.34375 374.01562Q83.34375 375.53125 83.03125 376.45312Q82.734375 377.375 82.109375 377.89062Q81.5 378.39062 80.546875 378.39062Q79.3125 378.39062 78.59375 377.5Q77.75 376.4375 77.75 374.01562ZM78.828125 374.01562Q78.828125 376.125 79.328125 376.82812Q79.828125 377.53125 80.546875 377.53125Q81.28125 377.53125 81.765625 376.82812Q82.265625 376.125 82.265625 374.01562Q82.265625 371.89062 81.765625 371.20312Q81.28125 370.5 80.53125 370.5Q79.8125 370.5 79.375 371.10938Q78.828125 371.89062 78.828125 374.01562Z"
          fill-rule="nonzero"/>
    <path fill="#000000"
          d="M243.22977 378.25L242.18289 378.25L242.18289 371.53125Q241.79227 371.89062 241.16727 372.26562Q240.55789 372.625 240.07352 372.79688L240.07352 371.78125Q240.94852 371.35938 241.60477 370.78125Q242.27664 370.1875 242.55789 369.625L243.22977 369.625L243.22977 378.25ZM246.26102 374.01562Q246.26102 372.48438 246.57352 371.5625Q246.88602 370.625 247.49539 370.125Q248.12039 369.625 249.05789 369.625Q249.74539 369.625 250.26102 369.90625Q250.79227 370.1875 251.13602 370.71875Q251.47977 371.23438 251.66727 371.98438Q251.85477 372.73438 251.85477 374.01562Q251.85477 375.53125 251.54227 376.45312Q251.24539 377.375 250.62039 377.89062Q250.01102 378.39062 249.05789 378.39062Q247.82352 378.39062 247.10477 377.5Q246.26102 376.4375 246.26102 374.01562ZM247.33914 374.01562Q247.33914 376.125 247.83914 376.82812Q248.33914 377.53125 249.05789 377.53125Q249.79227 377.53125 250.27664 376.82812Q250.77664 376.125 250.77664 374.01562Q250.77664 371.89062 250.27664 371.20312Q249.79227 370.5 249.04227 370.5Q248.32352 370.5 247.88602 371.10938Q247.33914 371.89062 247.33914 374.01562ZM253.26102 374.01562Q253.26102 372.48438 253.57352 371.5625Q253.88602 370.625 254.49539 370.125Q255.12039 369.625 256.0579 369.625Q256.7454 369.625 257.26102 369.90625Q257.79227 370.1875 258.13602 370.71875Q258.47977 371.23438 258.66727 371.98438Q258.85477 372.73438 258.85477 374.01562Q258.85477 375.53125 258.54227 376.45312Q258.2454 377.375 257.6204 377.89062Q257.01102 378.39062 256.0579 378.39062Q254.82352 378.39062 254.10477 377.5Q253.26102 376.4375 253.26102 374.01562ZM254.33914 374.01562Q254.33914 376.125 254.83914 376.82812Q255.33914 377.53125 256.0579 377.53125Q256.79227 377.53125 257.27664 376.82812Q257.77664 376.125 257.77664 374.01562Q257.77664 371.89062 257.27664 371.20312Q256.79227 370.5 256.04227 370.5Q255.32352 370.5 254.88602 371.10938Q254.33914 371.89062 254.33914 374.01562ZM260.26102 374.01562Q260.26102 372.48438 260.57352 371.5625Q260.88602 370.625 261.4954 370.125Q262.1204 369.625 263.0579 369.625Q263.7454 369.625 264.26102 369.90625Q264.79227 370.1875 265.13602 370.71875Q265.47977 371.23438 265.66727 371.98438Q265.85477 372.73438 265.85477 374.01562Q265.85477 375.53125 265.54227 376.45312Q265.2454 377.375 264.6204 377.89062Q264.01102 378.39062 263.0579 378.39062Q261.82352 378.39062 261.10477 377.5Q260.26102 376.4375 260.26102 374.01562ZM261.33914 374.01562Q261.33914 376.125 261.83914 376.82812Q262.33914 377.53125 263.0579 377.53125Q263.79227 377.53125 264.27664 376.82812Q264.77664 376.125 264.77664 374.01562Q264.77664 371.89062 264.27664 371.20312Q263.79227 370.5 263.04227 370.5Q262.32352 370.5 261.88602 371.10938Q261.33914 371.89062 261.33914 374.01562ZM267.26102 374.01562Q267.26102 372.48438 267.57352 371.5625Q267.88602 370.625 268.4954 370.125Q269.1204 369.625 270.0579 369.625Q270.7454 369.625 271.26102 369.90625Q271.79227 370.1875 272.13602 370.71875Q272.47977 371.23438 272.66727 371.98438Q272.85477 372.73438 272.85477 374.01562Q272.85477 375.53125 272.54227 376.45312Q272.2454 377.375 271.6204 377.89062Q271.01102 378.39062 270.0579 378.39062Q268.82352 378.39062 268.10477 377.5Q267.26102 376.4375 267.26102 374.01562ZM268.33914 374.01562Q268.33914 376.125 268.83914 376.82812Q269.33914 377.53125 270.0579 377.53125Q270.79227 377.53125 271.27664 376.82812Q271.77664 376.125 271.77664 374.01562Q271.77664 371.89062 271.27664 371.20312Q270.79227 370.5 270.04227 370.5Q269.32352 370.5 268.88602 371.10938Q268.33914 371.89062 268.33914 374.01562Z"
          fill-rule="nonzero"/>
    <path fill="#000000"
          d="M420.3189 377.23438L420.3189 378.25L414.6314 378.25Q414.6314 377.875 414.7564 377.51562Q414.97516 376.9375 415.4439 376.375Q415.92828 375.8125 416.83453 375.07812Q418.24078 373.92188 418.72516 373.25Q419.22516 372.57812 419.22516 371.98438Q419.22516 371.35938 418.77203 370.9375Q418.3189 370.5 417.60016 370.5Q416.83453 370.5 416.3814 370.95312Q415.92828 371.40625 415.91266 372.21875L414.83453 372.10938Q414.9439 370.89062 415.66266 370.26562Q416.39703 369.625 417.6314 369.625Q418.86578 369.625 419.58453 370.3125Q420.30328 371.0 420.30328 372.01562Q420.30328 372.53125 420.08453 373.03125Q419.8814 373.51562 419.3814 374.07812Q418.89703 374.625 417.77203 375.57812Q416.8189 376.375 416.53766 376.67188Q416.27203 376.95312 416.10016 377.23438L420.3189 377.23438ZM421.77203 374.01562Q421.77203 372.48438 422.08453 371.5625Q422.39703 370.625 423.0064 370.125Q423.6314 369.625 424.5689 369.625Q425.2564 369.625 425.77203 369.90625Q426.30328 370.1875 426.64703 370.71875Q426.99078 371.23438 427.17828 371.98438Q427.36578 372.73438 427.36578 374.01562Q427.36578 375.53125 427.05328 376.45312Q426.7564 377.375 426.1314 377.89062Q425.52203 378.39062 424.5689 378.39062Q423.33453 378.39062 422.61578 377.5Q421.77203 376.4375 421.77203 374.01562ZM422.85016 374.01562Q422.85016 376.125 423.35016 376.82812Q423.85016 377.53125 424.5689 377.53125Q425.30328 377.53125 425.78766 376.82812Q426.28766 376.125 426.28766 374.01562Q426.28766 371.89062 425.78766 371.20312Q425.30328 370.5 424.55328 370.5Q423.83453 370.5 423.39703 371.10938Q422.85016 371.89062 422.85016 374.01562ZM428.77203 374.01562Q428.77203 372.48438 429.08453 371.5625Q429.39703 370.625 430.0064 370.125Q430.6314 369.625 431.5689 369.625Q432.2564 369.625 432.77203 369.90625Q433.30328 370.1875 433.64703 370.71875Q433.99078 371.23438 434.17828 371.98438Q434.36578 372.73438 434.36578 374.01562Q434.36578 375.53125 434.05328 376.45312Q433.7564 377.375 433.1314 377.89062Q432.52203 378.39062 431.5689 378.39062Q430.33453 378.39062 429.61578 377.5Q428.77203 376.4375 428.77203 374.01562ZM429.85016 374.01562Q429.85016 376.125 430.35016 376.82812Q430.85016 377.53125 431.5689 377.53125Q432.30328 377.53125 432.78766 376.82812Q433.28766 376.125 433.28766 374.01562Q433.28766 371.89062 432.78766 371.20312Q432.30328 370.5 431.55328 370.5Q430.83453 370.5 430.39703 371.10938Q429.85016 371.89062 429.85016 374.01562ZM435.77203 374.01562Q435.77203 372.48438 436.08453 371.5625Q436.39703 370.625 437.0064 370.125Q437.6314 369.625 438.5689 369.625Q439.2564 369.625 439.77203 369.90625Q440.30328 370.1875 440.64703 370.71875Q440.99078 371.23438 441.17828 371.98438Q441.36578 372.73438 441.36578 374.01562Q441.36578 375.53125 441.05328 376.45312Q440.7564 377.375 440.1314 377.89062Q439.52203 378.39062 438.5689 378.39062Q437.33453 378.39062 436.61578 377.5Q435.77203 376.4375 435.77203 374.01562ZM436.85016 374.01562Q436.85016 376.125 437.35016 376.82812Q437.85016 377.53125 438.5689 377.53125Q439.30328 377.53125 439.78766 376.82812Q440.28766 376.125 440.28766 374.01562Q440.28766 371.89062 439.78766 371.20312Q439.30328 370.5 438.55328 370.5Q437.83453 370.5 437.39703 371.10938Q436.85016 371.89062 436.85016 374.01562ZM442.77203 374.01562Q442.77203 372.48438 443.08453 371.5625Q443.39703 370.625 444.0064 370.125Q444.6314 369.625 445.5689 369.625Q446.2564 369.625 446.77203 369.90625Q447.30328 370.1875 447.64703 370.71875Q447.99078 371.23438 448.17828 371.98438Q448.36578 372.73438 448.36578 374.01562Q448.36578 375.53125 448.05328 376.45312Q447.7564 377.375 447.1314 377.89062Q446.52203 378.39062 445.5689 378.39062Q444.33453 378.39062 443.61578 377.5Q442.77203 376.4375 442.77203 374.01562ZM443.85016 374.01562Q443.85016 376.125 444.35016 376.82812Q444.85016 377.53125 445.5689 377.53125Q446.30328 377.53125 446.78766 376.82812Q447.28766 376.125 447.28766 374.01562Q447.28766 371.89062 446.78766 371.20312Q446.30328 370.5 445.55328 370.5Q444.83453 370.5 444.39703 371.10938Q443.85016 371.89062 443.85016 374.01562Z"
          fill-rule="nonzero"/>
    <path fill="#000000"
          d="M590.283 375.98438L591.3455 375.84375Q591.5174 376.73438 591.9549 377.14062Q592.3924 377.53125 593.0174 377.53125Q593.7674 377.53125 594.283 377.01562Q594.79865 376.5 594.79865 375.73438Q594.79865 375.01562 594.3143 374.54688Q593.8455 374.0625 593.11115 374.0625Q592.8143 374.0625 592.36115 374.1875L592.48615 373.25Q592.5955 373.26562 592.658 373.26562Q593.3299 373.26562 593.86115 372.92188Q594.408 372.5625 594.408 371.82812Q594.408 371.25 594.0174 370.875Q593.6268 370.48438 593.0018 370.48438Q592.3924 370.48438 591.9705 370.875Q591.5643 371.26562 591.4549 372.03125L590.3924 371.84375Q590.5799 370.79688 591.2674 370.21875Q591.9549 369.625 592.9705 369.625Q593.67365 369.625 594.2674 369.9375Q594.86115 370.23438 595.17365 370.75Q595.48615 371.26562 595.48615 371.85938Q595.48615 372.40625 595.1893 372.875Q594.8924 373.32812 594.3143 373.59375Q595.0643 373.76562 595.48615 374.32812Q595.908 374.875 595.908 375.71875Q595.908 376.84375 595.0799 377.625Q594.2674 378.40625 593.0174 378.40625Q591.8924 378.40625 591.1424 377.73438Q590.3924 377.04688 590.283 375.98438ZM597.283 374.01562Q597.283 372.48438 597.5955 371.5625Q597.908 370.625 598.5174 370.125Q599.1424 369.625 600.0799 369.625Q600.7674 369.625 601.283 369.90625Q601.8143 370.1875 602.158 370.71875Q602.5018 371.23438 602.6893 371.98438Q602.8768 372.73438 602.8768 374.01562Q602.8768 375.53125 602.5643 376.45312Q602.2674 377.375 601.6424 377.89062Q601.033 378.39062 600.0799 378.39062Q598.8455 378.39062 598.1268 377.5Q597.283 376.4375 597.283 374.01562ZM598.36115 374.01562Q598.36115 376.125 598.86115 376.82812Q599.36115 377.53125 600.0799 377.53125Q600.8143 377.53125 601.29865 376.82812Q601.79865 376.125 601.79865 374.01562Q601.79865 371.89062 601.29865 371.20312Q600.8143 370.5 600.0643 370.5Q599.3455 370.5 598.908 371.10938Q598.36115 371.89062 598.36115 374.01562ZM604.283 374.01562Q604.283 372.48438 604.5955 371.5625Q604.908 370.625 605.5174 370.125Q606.1424 369.625 607.0799 369.625Q607.7674 369.625 608.283 369.90625Q608.8143 370.1875 609.158 370.71875Q609.5018 371.23438 609.6893 371.98438Q609.8768 372.73438 609.8768 374.01562Q609.8768 375.53125 609.5643 376.45312Q609.2674 377.375 608.6424 377.89062Q608.033 378.39062 607.0799 378.39062Q605.8455 378.39062 605.1268 377.5Q604.283 376.4375 604.283 374.01562ZM605.36115 374.01562Q605.36115 376.125 605.86115 376.82812Q606.36115 377.53125 607.0799 377.53125Q607.8143 377.53125 608.29865 376.82812Q608.79865 376.125 608.79865 374.01562Q608.79865 371.89062 608.29865 371.20312Q607.8143 370.5 607.0643 370.5Q606.3455 370.5 605.908 371.10938Q605.36115 371.89062 605.36115 374.01562ZM611.283 374.01562Q611.283 372.48438 611.5955 371.5625Q611.908 370.625 612.5174 370.125Q613.1424 369.625 614.0799 369.625Q614.7674 369.625 615.283 369.90625Q615.8143 370.1875 616.158 370.71875Q616.5018 371.23438 616.6893 371.98438Q616.8768 372.73438 616.8768 374.01562Q616.8768 375.53125 616.5643 376.45312Q616.2674 377.375 615.6424 377.89062Q615.033 378.39062 614.0799 378.39062Q612.8455 378.39062 612.1268 377.5Q611.283 376.4375 611.283 374.01562ZM612.36115 374.01562Q612.36115 376.125 612.86115 376.82812Q613.36115 377.53125 614.0799 377.53125Q614.8143 377.53125 615.29865 376.82812Q615.79865 376.125 615.79865 374.01562Q615.79865 371.89062 615.29865 371.20312Q614.8143 370.5 614.0643 370.5Q613.3455 370.5 612.908 371.10938Q612.36115 371.89062 612.36115 374.01562ZM618.283 374.01562Q618.283 372.48438 618.5955 371.5625Q618.908 370.625 619.5174 370.125Q620.1424 369.625 621.0799 369.625Q621.7674 369.625 622.283 369.90625Q622.8143 370.1875 623.158 370.71875Q623.5018 371.23438 623.6893 371.98438Q623.8768 372.73438 623.8768 374.01562Q623.8768 375.53125 623.5643 376.45312Q623.2674 377.375 622.6424 377.89062Q622.033 378.39062 621.0799 378.39062Q619.8455 378.39062 619.1268 377.5Q618.283 376.4375 618.283 374.01562ZM619.36115 374.01562Q619.36115 376.125 619.86115 376.82812Q620.36115 377.53125 621.0799 377.53125Q621.8143 377.53125 622.29865 376.82812Q622.79865 376.125 622.79865 374.01562Q622.79865 371.89062 622.29865 371.20312Q621.8143 370.5 621.0643 370.5Q620.3455 370.5 619.908 371.10938Q619.36115 371.89062 619.36115 374.01562Z"
          fill-rule="nonzero"/>
    <path fill="#4285f4"
          d="M655.2 28.75C655.2 32.06371 652.51373 34.75 649.2 34.75C645.8863 34.75 643.2 32.06371 643.2 28.75C643.2 25.43629 645.8863 22.75 649.2 22.75C652.51373 22.75 655.2 25.43629 655.2 28.75Z"
          fill-rule="nonzero"/>
    <path fill="#1a1a1a"
          d="M667.66876 32.75L666.6219 32.75L666.6219 26.03125Q666.23126 26.390625 665.60626 26.765625Q664.9969 27.125 664.5125 27.296875L664.5125 26.28125Q665.3875 25.859375 666.04376 25.28125Q666.71564 24.6875 666.9969 24.125L667.66876 24.125L667.66876 32.75Z"
          fill-rule="nonzero"/>
    <path fill="#ea4335"
          d="M655.2 52.75C655.2 56.06371 652.51373 58.75 649.2 58.75C645.8863 58.75 643.2 56.06371 643.2 52.75C643.2 49.43629 645.8863 46.75 649.2 46.75C652.51373 46.75 655.2 49.43629 655.2 52.75Z"
          fill-rule="nonzero"/>
    <path fill="#1a1a1a"
          d="M669.2469 55.734375L669.2469 56.75L663.5594 56.75Q663.5594 56.375 663.6844 56.015625Q663.90314 55.4375 664.3719 54.875Q664.85626 54.3125 665.7625 53.578125Q667.16876 52.421875 667.65314 51.75Q668.15314 51.078125 668.15314 50.484375Q668.15314 49.859375 667.7 49.4375Q667.2469 49.0 666.52814 49.0Q665.7625 49.0 665.3094 49.453125Q664.85626 49.90625 664.84064 50.71875L663.7625 50.609375Q663.8719 49.390625 664.59064 48.765625Q665.325 48.125 666.5594 48.125Q667.79376 48.125 668.5125 48.8125Q669.23126 49.5 669.23126 50.515625Q669.23126 51.03125 669.0125 51.53125Q668.8094 52.015625 668.3094 52.578125Q667.825 53.125 666.7 54.078125Q665.7469 54.875 665.46564 55.171875Q665.2 55.453125 665.02814 55.734375L669.2469 55.734375Z"
          fill-rule="nonzero"/>
    <path fill="#fbbc04"
          d="M655.2 76.75C655.2 80.063705 652.51373 82.75 649.2 82.75C645.8863 82.75 643.2 80.063705 643.2 76.75C643.2 73.436295 645.8863 70.75 649.2 70.75C652.51373 70.75 655.2 73.436295 655.2 76.75Z"
          fill-rule="nonzero"/>
    <path fill="#1a1a1a"
          d="M663.7 78.484375L664.7625 78.34375Q664.9344 79.234375 665.3719 79.640625Q665.8094 80.03125 666.4344 80.03125Q667.1844 80.03125 667.7 79.515625Q668.21564 79.0 668.21564 78.234375Q668.21564 77.515625 667.73126 77.046875Q667.2625 76.5625 666.52814 76.5625Q666.23126 76.5625 665.77814 76.6875L665.90314 75.75Q666.0125 75.765625 666.075 75.765625Q666.7469 75.765625 667.27814 75.421875Q667.825 75.0625 667.825 74.328125Q667.825 73.75 667.4344 73.375Q667.04376 72.984375 666.41876 72.984375Q665.8094 72.984375 665.3875 73.375Q664.98126 73.765625 664.8719 74.53125L663.8094 74.34375Q663.9969 73.296875 664.6844 72.71875Q665.3719 72.125 666.3875 72.125Q667.09064 72.125 667.6844 72.4375Q668.27814 72.734375 668.59064 73.25Q668.90314 73.765625 668.90314 74.359375Q668.90314 74.90625 668.60626 75.375Q668.3094 75.828125 667.73126 76.09375Q668.48126 76.265625 668.90314 76.828125Q669.325 77.375 669.325 78.21875Q669.325 79.34375 668.4969 80.125Q667.6844 80.90625 666.4344 80.90625Q665.3094 80.90625 664.5594 80.234375Q663.8094 79.546875 663.7 78.484375Z"
          fill-rule="nonzero"/>
    <path fill="#34a853"
          d="M655.2 100.75C655.2 104.063705 652.51373 106.75 649.2 106.75C645.8863 106.75 643.2 104.063705 643.2 100.75C643.2 97.436295 645.8863 94.75 649.2 94.75C652.51373 94.75 655.2 97.436295 655.2 100.75Z"
          fill-rule="nonzero"/>
    <path fill="#1a1a1a"
          d="M667.075 104.75L667.075 102.6875L663.35626 102.6875L663.35626 101.71875L667.27814 96.15625L668.1375 96.15625L668.1375 101.71875L669.29376 101.71875L669.29376 102.6875L668.1375 102.6875L668.1375 104.75L667.075 104.75ZM667.075 101.71875L667.075 97.859375L664.3875 101.71875L667.075 101.71875Z"
          fill-rule="nonzero"/>
    <path fill="#ff6d01"
          d="M655.2 124.75C655.2 128.0637 652.51373 130.75 649.2 130.75C645.8863 130.75 643.2 128.0637 643.2 124.75C643.2 121.436295 645.8863 118.75 649.2 118.75C652.51373 118.75 655.2 121.436295 655.2 124.75Z"
          fill-rule="nonzero"/>
    <path fill="#1a1a1a"
          d="M663.7 126.5L664.8094 126.40625Q664.9344 127.21875 665.3719 127.625Q665.825 128.03125 666.46564 128.03125Q667.21564 128.03125 667.7469 127.453125Q668.27814 126.875 668.27814 125.9375Q668.27814 125.03125 667.7625 124.515625Q667.2625 123.984375 666.4344 123.984375Q665.9344 123.984375 665.5125 124.21875Q665.10626 124.453125 664.8719 124.8125L663.8875 124.6875L664.71564 120.28125L668.9969 120.28125L668.9969 121.28125L665.5594 121.28125L665.10626 123.59375Q665.8719 123.046875 666.71564 123.046875Q667.84064 123.046875 668.60626 123.828125Q669.3875 124.609375 669.3875 125.84375Q669.3875 127.0 668.71564 127.859375Q667.8875 128.89062 666.46564 128.89062Q665.29376 128.89062 664.54376 128.23438Q663.8094 127.578125 663.7 126.5Z"
          fill-rule="nonzero"/>
    <path fill="#46bdc6"
          d="M655.2 148.75C655.2 152.0637 652.51373 154.75 649.2 154.75C645.8863 154.75 643.2 152.0637 643.2 148.75C643.2 145.4363 645.8863 142.75 649.2 142.75C652.51373 142.75 655.2 145.4363 655.2 148.75Z"
          fill-rule="nonzero"/>
    <path fill="#1a1a1a"
          d="M669.16876 146.26562L668.1219 146.34375Q667.98126 145.71875 667.73126 145.4375Q667.29376 144.98438 666.66876 144.98438Q666.16876 144.98438 665.77814 145.26562Q665.29376 145.64062 664.9969 146.34375Q664.71564 147.03125 664.7 148.3125Q665.075 147.73438 665.6219 147.45312Q666.1844 147.17188 666.79376 147.17188Q667.84064 147.17188 668.575 147.95312Q669.325 148.73438 669.325 149.95312Q669.325 150.76562 668.96564 151.46875Q668.6219 152.15625 668.0125 152.53125Q667.40314 152.89062 666.6375 152.89062Q665.3094 152.89062 664.48126 151.92188Q663.65314 150.95312 663.65314 148.73438Q663.65314 146.23438 664.575 145.10938Q665.3719 144.125 666.73126 144.125Q667.7469 144.125 668.3875 144.70312Q669.04376 145.26562 669.16876 146.26562ZM664.8719 149.96875Q664.8719 150.51562 665.09064 151.01562Q665.325 151.5 665.73126 151.76562Q666.15314 152.03125 666.6219 152.03125Q667.27814 152.03125 667.7625 151.5Q668.2469 150.95312 668.2469 150.03125Q668.2469 149.14062 667.7625 148.625Q667.29376 148.10938 666.575 148.10938Q665.85626 148.10938 665.35626 148.625Q664.8719 149.14062 664.8719 149.96875Z"
          fill-rule="nonzero"/>
</svg>